<?xml version="1.0" encoding="utf-8" standalone="no"?>
<!DOCTYPE svg PUBLIC "-//W3C//DTD SVG 1.1//EN"
  "http://www.w3.org/Graphics/SVG/1.1/DTD/svg11.dtd">
<!-- Created with matplotlib (https://matplotlib.org/) -->
<svg height="334.071328pt" version="1.1" viewBox="0 0 445.124966 334.071328" width="445.124966pt" xmlns="http://www.w3.org/2000/svg" xmlns:xlink="http://www.w3.org/1999/xlink">
 <defs>
  <style type="text/css">
*{stroke-linecap:butt;stroke-linejoin:round;}
  </style>
 </defs>
 <g id="figure_1">
  <g id="patch_1">
   <path d="M 0 334.071328 
L 445.124966 334.071328 
L 445.124966 0 
L 0 0 
z
" style="fill:#ffffff;"/>
  </g>
  <g id="axes_1">
   <g id="patch_2">
    <path d="M 63.096562 278.82 
L 314.532216 278.82 
L 314.532216 7.2 
L 63.096562 7.2 
z
" style="fill:#eaeaf2;"/>
   </g>
   <g id="matplotlib.axis_1">
    <g id="xtick_1">
     <g id="line2d_1">
      <path clip-path="url(#pd80655dfc0)" d="M 118.494148 278.82 
L 118.494148 7.2 
" style="fill:none;stroke:#ffffff;stroke-linecap:round;stroke-width:1.5;"/>
     </g>
     <g id="text_1">
      <!-- 25 -->
      <defs>
       <path d="M 50.34375 8.453125 
L 50.34375 0 
L 3.03125 0 
Q 2.9375 3.171875 4.046875 6.109375 
Q 5.859375 10.9375 9.828125 15.625 
Q 13.8125 20.3125 21.34375 26.46875 
Q 33.015625 36.03125 37.109375 41.625 
Q 41.21875 47.21875 41.21875 52.203125 
Q 41.21875 57.421875 37.46875 61 
Q 33.734375 64.59375 27.734375 64.59375 
Q 21.390625 64.59375 17.578125 60.78125 
Q 13.765625 56.984375 13.71875 50.25 
L 4.6875 51.171875 
Q 5.609375 61.28125 11.65625 66.578125 
Q 17.71875 71.875 27.9375 71.875 
Q 38.234375 71.875 44.234375 66.15625 
Q 50.25 60.453125 50.25 52 
Q 50.25 47.703125 48.484375 43.546875 
Q 46.734375 39.40625 42.65625 34.8125 
Q 38.578125 30.21875 29.109375 22.21875 
Q 21.1875 15.578125 18.9375 13.203125 
Q 16.703125 10.84375 15.234375 8.453125 
z
" id="ArialMT-50"/>
       <path d="M 4.15625 18.75 
L 13.375 19.53125 
Q 14.40625 12.796875 18.140625 9.390625 
Q 21.875 6 27.15625 6 
Q 33.5 6 37.890625 10.78125 
Q 42.28125 15.578125 42.28125 23.484375 
Q 42.28125 31 38.0625 35.34375 
Q 33.84375 39.703125 27 39.703125 
Q 22.75 39.703125 19.328125 37.765625 
Q 15.921875 35.84375 13.96875 32.765625 
L 5.71875 33.84375 
L 12.640625 70.609375 
L 48.25 70.609375 
L 48.25 62.203125 
L 19.671875 62.203125 
L 15.828125 42.96875 
Q 22.265625 47.46875 29.34375 47.46875 
Q 38.71875 47.46875 45.15625 40.96875 
Q 51.609375 34.46875 51.609375 24.265625 
Q 51.609375 14.546875 45.953125 7.46875 
Q 39.0625 -1.21875 27.15625 -1.21875 
Q 17.390625 -1.21875 11.203125 4.25 
Q 5.03125 9.71875 4.15625 18.75 
z
" id="ArialMT-53"/>
      </defs>
      <g style="fill:#262626;" transform="translate(109.318601 303.130391)scale(0.165 -0.165)">
       <use xlink:href="#ArialMT-50"/>
       <use x="55.615234" xlink:href="#ArialMT-53"/>
      </g>
     </g>
    </g>
    <g id="xtick_2">
     <g id="line2d_2">
      <path clip-path="url(#pd80655dfc0)" d="M 176.13369 278.82 
L 176.13369 7.2 
" style="fill:none;stroke:#ffffff;stroke-linecap:round;stroke-width:1.5;"/>
     </g>
     <g id="text_2">
      <!-- 50 -->
      <defs>
       <path d="M 4.15625 35.296875 
Q 4.15625 48 6.765625 55.734375 
Q 9.375 63.484375 14.515625 67.671875 
Q 19.671875 71.875 27.484375 71.875 
Q 33.25 71.875 37.59375 69.546875 
Q 41.9375 67.234375 44.765625 62.859375 
Q 47.609375 58.5 49.21875 52.21875 
Q 50.828125 45.953125 50.828125 35.296875 
Q 50.828125 22.703125 48.234375 14.96875 
Q 45.65625 7.234375 40.5 3 
Q 35.359375 -1.21875 27.484375 -1.21875 
Q 17.140625 -1.21875 11.234375 6.203125 
Q 4.15625 15.140625 4.15625 35.296875 
z
M 13.1875 35.296875 
Q 13.1875 17.671875 17.3125 11.828125 
Q 21.4375 6 27.484375 6 
Q 33.546875 6 37.671875 11.859375 
Q 41.796875 17.71875 41.796875 35.296875 
Q 41.796875 52.984375 37.671875 58.78125 
Q 33.546875 64.59375 27.390625 64.59375 
Q 21.34375 64.59375 17.71875 59.46875 
Q 13.1875 52.9375 13.1875 35.296875 
z
" id="ArialMT-48"/>
      </defs>
      <g style="fill:#262626;" transform="translate(166.958143 303.130391)scale(0.165 -0.165)">
       <use xlink:href="#ArialMT-53"/>
       <use x="55.615234" xlink:href="#ArialMT-48"/>
      </g>
     </g>
    </g>
    <g id="xtick_3">
     <g id="line2d_3">
      <path clip-path="url(#pd80655dfc0)" d="M 233.773232 278.82 
L 233.773232 7.2 
" style="fill:none;stroke:#ffffff;stroke-linecap:round;stroke-width:1.5;"/>
     </g>
     <g id="text_3">
      <!-- 75 -->
      <defs>
       <path d="M 4.734375 62.203125 
L 4.734375 70.65625 
L 51.078125 70.65625 
L 51.078125 63.8125 
Q 44.234375 56.546875 37.515625 44.484375 
Q 30.8125 32.421875 27.15625 19.671875 
Q 24.515625 10.6875 23.78125 0 
L 14.75 0 
Q 14.890625 8.453125 18.0625 20.40625 
Q 21.234375 32.375 27.171875 43.484375 
Q 33.109375 54.59375 39.796875 62.203125 
z
" id="ArialMT-55"/>
      </defs>
      <g style="fill:#262626;" transform="translate(224.597685 303.130391)scale(0.165 -0.165)">
       <use xlink:href="#ArialMT-55"/>
       <use x="55.615234" xlink:href="#ArialMT-53"/>
      </g>
     </g>
    </g>
    <g id="xtick_4">
     <g id="line2d_4">
      <path clip-path="url(#pd80655dfc0)" d="M 291.412775 278.82 
L 291.412775 7.2 
" style="fill:none;stroke:#ffffff;stroke-linecap:round;stroke-width:1.5;"/>
     </g>
     <g id="text_4">
      <!-- 100 -->
      <defs>
       <path d="M 37.25 0 
L 28.46875 0 
L 28.46875 56 
Q 25.296875 52.984375 20.140625 49.953125 
Q 14.984375 46.921875 10.890625 45.40625 
L 10.890625 53.90625 
Q 18.265625 57.375 23.78125 62.296875 
Q 29.296875 67.234375 31.59375 71.875 
L 37.25 71.875 
z
" id="ArialMT-49"/>
      </defs>
      <g style="fill:#262626;" transform="translate(277.649454 303.130391)scale(0.165 -0.165)">
       <use xlink:href="#ArialMT-49"/>
       <use x="55.615234" xlink:href="#ArialMT-48"/>
       <use x="111.230469" xlink:href="#ArialMT-48"/>
      </g>
     </g>
    </g>
    <g id="text_5">
     <!-- rt -->
     <defs>
      <path d="M 6.5 0 
L 6.5 51.859375 
L 14.40625 51.859375 
L 14.40625 44 
Q 17.4375 49.515625 20 51.265625 
Q 22.5625 53.03125 25.640625 53.03125 
Q 30.078125 53.03125 34.671875 50.203125 
L 31.640625 42.046875 
Q 28.421875 43.953125 25.203125 43.953125 
Q 22.3125 43.953125 20.015625 42.21875 
Q 17.71875 40.484375 16.75 37.40625 
Q 15.28125 32.71875 15.28125 27.15625 
L 15.28125 0 
z
" id="ArialMT-114"/>
      <path d="M 25.78125 7.859375 
L 27.046875 0.09375 
Q 23.34375 -0.6875 20.40625 -0.6875 
Q 15.625 -0.6875 12.984375 0.828125 
Q 10.359375 2.34375 9.28125 4.8125 
Q 8.203125 7.28125 8.203125 15.1875 
L 8.203125 45.015625 
L 1.765625 45.015625 
L 1.765625 51.859375 
L 8.203125 51.859375 
L 8.203125 64.703125 
L 16.9375 69.96875 
L 16.9375 51.859375 
L 25.78125 51.859375 
L 25.78125 45.015625 
L 16.9375 45.015625 
L 16.9375 14.703125 
Q 16.9375 10.9375 17.40625 9.859375 
Q 17.875 8.796875 18.921875 8.15625 
Q 19.96875 7.515625 21.921875 7.515625 
Q 23.390625 7.515625 25.78125 7.859375 
z
" id="ArialMT-116"/>
     </defs>
     <g style="fill:#262626;" transform="translate(183.317358 323.293828)scale(0.18 -0.18)">
      <use xlink:href="#ArialMT-114"/>
      <use x="33.300781" xlink:href="#ArialMT-116"/>
     </g>
    </g>
   </g>
   <g id="matplotlib.axis_2">
    <g id="ytick_1">
     <g id="line2d_5">
      <path clip-path="url(#pd80655dfc0)" d="M 63.096562 274.346929 
L 314.532216 274.346929 
" style="fill:none;stroke:#ffffff;stroke-linecap:round;stroke-width:1.5;"/>
     </g>
     <g id="text_6">
      <!-- 0.0 -->
      <defs>
       <path d="M 9.078125 0 
L 9.078125 10.015625 
L 19.09375 10.015625 
L 19.09375 0 
z
" id="ArialMT-46"/>
      </defs>
      <g style="fill:#262626;" transform="translate(27.661562 280.252125)scale(0.165 -0.165)">
       <use xlink:href="#ArialMT-48"/>
       <use x="55.615234" xlink:href="#ArialMT-46"/>
       <use x="83.398438" xlink:href="#ArialMT-48"/>
      </g>
     </g>
    </g>
    <g id="ytick_2">
     <g id="line2d_6">
      <path clip-path="url(#pd80655dfc0)" d="M 63.096562 239.393387 
L 314.532216 239.393387 
" style="fill:none;stroke:#ffffff;stroke-linecap:round;stroke-width:1.5;"/>
     </g>
     <g id="text_7">
      <!-- 0.5 -->
      <g style="fill:#262626;" transform="translate(27.661562 245.298583)scale(0.165 -0.165)">
       <use xlink:href="#ArialMT-48"/>
       <use x="55.615234" xlink:href="#ArialMT-46"/>
       <use x="83.398438" xlink:href="#ArialMT-53"/>
      </g>
     </g>
    </g>
    <g id="ytick_3">
     <g id="line2d_7">
      <path clip-path="url(#pd80655dfc0)" d="M 63.096562 204.439845 
L 314.532216 204.439845 
" style="fill:none;stroke:#ffffff;stroke-linecap:round;stroke-width:1.5;"/>
     </g>
     <g id="text_8">
      <!-- 1.0 -->
      <g style="fill:#262626;" transform="translate(27.661562 210.345041)scale(0.165 -0.165)">
       <use xlink:href="#ArialMT-49"/>
       <use x="55.615234" xlink:href="#ArialMT-46"/>
       <use x="83.398438" xlink:href="#ArialMT-48"/>
      </g>
     </g>
    </g>
    <g id="ytick_4">
     <g id="line2d_8">
      <path clip-path="url(#pd80655dfc0)" d="M 63.096562 169.486304 
L 314.532216 169.486304 
" style="fill:none;stroke:#ffffff;stroke-linecap:round;stroke-width:1.5;"/>
     </g>
     <g id="text_9">
      <!-- 1.5 -->
      <g style="fill:#262626;" transform="translate(27.661562 175.391499)scale(0.165 -0.165)">
       <use xlink:href="#ArialMT-49"/>
       <use x="55.615234" xlink:href="#ArialMT-46"/>
       <use x="83.398438" xlink:href="#ArialMT-53"/>
      </g>
     </g>
    </g>
    <g id="ytick_5">
     <g id="line2d_9">
      <path clip-path="url(#pd80655dfc0)" d="M 63.096562 134.532762 
L 314.532216 134.532762 
" style="fill:none;stroke:#ffffff;stroke-linecap:round;stroke-width:1.5;"/>
     </g>
     <g id="text_10">
      <!-- 2.0 -->
      <g style="fill:#262626;" transform="translate(27.661562 140.437957)scale(0.165 -0.165)">
       <use xlink:href="#ArialMT-50"/>
       <use x="55.615234" xlink:href="#ArialMT-46"/>
       <use x="83.398438" xlink:href="#ArialMT-48"/>
      </g>
     </g>
    </g>
    <g id="ytick_6">
     <g id="line2d_10">
      <path clip-path="url(#pd80655dfc0)" d="M 63.096562 99.57922 
L 314.532216 99.57922 
" style="fill:none;stroke:#ffffff;stroke-linecap:round;stroke-width:1.5;"/>
     </g>
     <g id="text_11">
      <!-- 2.5 -->
      <g style="fill:#262626;" transform="translate(27.661562 105.484415)scale(0.165 -0.165)">
       <use xlink:href="#ArialMT-50"/>
       <use x="55.615234" xlink:href="#ArialMT-46"/>
       <use x="83.398438" xlink:href="#ArialMT-53"/>
      </g>
     </g>
    </g>
    <g id="ytick_7">
     <g id="line2d_11">
      <path clip-path="url(#pd80655dfc0)" d="M 63.096562 64.625678 
L 314.532216 64.625678 
" style="fill:none;stroke:#ffffff;stroke-linecap:round;stroke-width:1.5;"/>
     </g>
     <g id="text_12">
      <!-- 3.0 -->
      <defs>
       <path d="M 4.203125 18.890625 
L 12.984375 20.0625 
Q 14.5 12.59375 18.140625 9.296875 
Q 21.78125 6 27 6 
Q 33.203125 6 37.46875 10.296875 
Q 41.75 14.59375 41.75 20.953125 
Q 41.75 27 37.796875 30.921875 
Q 33.84375 34.859375 27.734375 34.859375 
Q 25.25 34.859375 21.53125 33.890625 
L 22.515625 41.609375 
Q 23.390625 41.5 23.921875 41.5 
Q 29.546875 41.5 34.03125 44.421875 
Q 38.53125 47.359375 38.53125 53.46875 
Q 38.53125 58.296875 35.25 61.46875 
Q 31.984375 64.65625 26.8125 64.65625 
Q 21.6875 64.65625 18.265625 61.421875 
Q 14.84375 58.203125 13.875 51.765625 
L 5.078125 53.328125 
Q 6.6875 62.15625 12.390625 67.015625 
Q 18.109375 71.875 26.609375 71.875 
Q 32.46875 71.875 37.390625 69.359375 
Q 42.328125 66.84375 44.9375 62.5 
Q 47.5625 58.15625 47.5625 53.265625 
Q 47.5625 48.640625 45.0625 44.828125 
Q 42.578125 41.015625 37.703125 38.765625 
Q 44.046875 37.3125 47.5625 32.6875 
Q 51.078125 28.078125 51.078125 21.140625 
Q 51.078125 11.765625 44.234375 5.25 
Q 37.40625 -1.265625 26.953125 -1.265625 
Q 17.53125 -1.265625 11.296875 4.34375 
Q 5.078125 9.96875 4.203125 18.890625 
z
" id="ArialMT-51"/>
      </defs>
      <g style="fill:#262626;" transform="translate(27.661562 70.530873)scale(0.165 -0.165)">
       <use xlink:href="#ArialMT-51"/>
       <use x="55.615234" xlink:href="#ArialMT-46"/>
       <use x="83.398438" xlink:href="#ArialMT-48"/>
      </g>
     </g>
    </g>
    <g id="ytick_8">
     <g id="line2d_12">
      <path clip-path="url(#pd80655dfc0)" d="M 63.096562 29.672136 
L 314.532216 29.672136 
" style="fill:none;stroke:#ffffff;stroke-linecap:round;stroke-width:1.5;"/>
     </g>
     <g id="text_13">
      <!-- 3.5 -->
      <g style="fill:#262626;" transform="translate(27.661562 35.577331)scale(0.165 -0.165)">
       <use xlink:href="#ArialMT-51"/>
       <use x="55.615234" xlink:href="#ArialMT-46"/>
       <use x="83.398438" xlink:href="#ArialMT-53"/>
      </g>
     </g>
    </g>
    <g id="text_14">
     <!-- nielsen -->
     <defs>
      <path d="M 6.59375 0 
L 6.59375 51.859375 
L 14.5 51.859375 
L 14.5 44.484375 
Q 20.21875 53.03125 31 53.03125 
Q 35.6875 53.03125 39.625 51.34375 
Q 43.5625 49.65625 45.515625 46.921875 
Q 47.46875 44.1875 48.25 40.4375 
Q 48.734375 37.984375 48.734375 31.890625 
L 48.734375 0 
L 39.9375 0 
L 39.9375 31.546875 
Q 39.9375 36.921875 38.90625 39.578125 
Q 37.890625 42.234375 35.28125 43.8125 
Q 32.671875 45.40625 29.15625 45.40625 
Q 23.53125 45.40625 19.453125 41.84375 
Q 15.375 38.28125 15.375 28.328125 
L 15.375 0 
z
" id="ArialMT-110"/>
      <path d="M 6.640625 61.46875 
L 6.640625 71.578125 
L 15.4375 71.578125 
L 15.4375 61.46875 
z
M 6.640625 0 
L 6.640625 51.859375 
L 15.4375 51.859375 
L 15.4375 0 
z
" id="ArialMT-105"/>
      <path d="M 42.09375 16.703125 
L 51.171875 15.578125 
Q 49.03125 7.625 43.21875 3.21875 
Q 37.40625 -1.171875 28.375 -1.171875 
Q 17 -1.171875 10.328125 5.828125 
Q 3.65625 12.84375 3.65625 25.484375 
Q 3.65625 38.578125 10.390625 45.796875 
Q 17.140625 53.03125 27.875 53.03125 
Q 38.28125 53.03125 44.875 45.953125 
Q 51.46875 38.875 51.46875 26.03125 
Q 51.46875 25.25 51.421875 23.6875 
L 12.75 23.6875 
Q 13.234375 15.140625 17.578125 10.59375 
Q 21.921875 6.0625 28.421875 6.0625 
Q 33.25 6.0625 36.671875 8.59375 
Q 40.09375 11.140625 42.09375 16.703125 
z
M 13.234375 30.90625 
L 42.1875 30.90625 
Q 41.609375 37.453125 38.875 40.71875 
Q 34.671875 45.796875 27.984375 45.796875 
Q 21.921875 45.796875 17.796875 41.75 
Q 13.671875 37.703125 13.234375 30.90625 
z
" id="ArialMT-101"/>
      <path d="M 6.390625 0 
L 6.390625 71.578125 
L 15.1875 71.578125 
L 15.1875 0 
z
" id="ArialMT-108"/>
      <path d="M 3.078125 15.484375 
L 11.765625 16.84375 
Q 12.5 11.625 15.84375 8.84375 
Q 19.1875 6.0625 25.203125 6.0625 
Q 31.25 6.0625 34.171875 8.515625 
Q 37.109375 10.984375 37.109375 14.3125 
Q 37.109375 17.28125 34.515625 19 
Q 32.71875 20.171875 25.53125 21.96875 
Q 15.875 24.421875 12.140625 26.203125 
Q 8.40625 27.984375 6.46875 31.125 
Q 4.546875 34.28125 4.546875 38.09375 
Q 4.546875 41.546875 6.125 44.5 
Q 7.71875 47.46875 10.453125 49.421875 
Q 12.5 50.921875 16.03125 51.96875 
Q 19.578125 53.03125 23.640625 53.03125 
Q 29.734375 53.03125 34.34375 51.265625 
Q 38.96875 49.515625 41.15625 46.5 
Q 43.359375 43.5 44.1875 38.484375 
L 35.59375 37.3125 
Q 35.015625 41.3125 32.203125 43.546875 
Q 29.390625 45.796875 24.265625 45.796875 
Q 18.21875 45.796875 15.625 43.796875 
Q 13.03125 41.796875 13.03125 39.109375 
Q 13.03125 37.40625 14.109375 36.03125 
Q 15.1875 34.625 17.484375 33.6875 
Q 18.796875 33.203125 25.25 31.453125 
Q 34.578125 28.953125 38.25 27.359375 
Q 41.9375 25.78125 44.03125 22.75 
Q 46.140625 19.734375 46.140625 15.234375 
Q 46.140625 10.84375 43.578125 6.953125 
Q 41.015625 3.078125 36.171875 0.953125 
Q 31.34375 -1.171875 25.25 -1.171875 
Q 15.140625 -1.171875 9.84375 3.03125 
Q 4.546875 7.234375 3.078125 15.484375 
z
" id="ArialMT-115"/>
     </defs>
     <g style="fill:#262626;" transform="translate(20.084062 171.52875)rotate(-90)scale(0.18 -0.18)">
      <use xlink:href="#ArialMT-110"/>
      <use x="55.615234" xlink:href="#ArialMT-105"/>
      <use x="77.832031" xlink:href="#ArialMT-101"/>
      <use x="133.447266" xlink:href="#ArialMT-108"/>
      <use x="155.664062" xlink:href="#ArialMT-115"/>
      <use x="205.664062" xlink:href="#ArialMT-101"/>
      <use x="261.279297" xlink:href="#ArialMT-110"/>
     </g>
    </g>
   </g>
   <g id="PathCollection_1">
    <defs>
     <path d="M 0 1.581139 
C 0.419323 1.581139 0.821528 1.41454 1.118034 1.118034 
C 1.41454 0.821528 1.581139 0.419323 1.581139 0 
C 1.581139 -0.419323 1.41454 -0.821528 1.118034 -1.118034 
C 0.821528 -1.41454 0.419323 -1.581139 0 -1.581139 
C -0.419323 -1.581139 -0.821528 -1.41454 -1.118034 -1.118034 
C -1.41454 -0.821528 -1.581139 -0.419323 -1.581139 0 
C -1.581139 0.419323 -1.41454 0.821528 -1.118034 1.118034 
C -0.821528 1.41454 -0.419323 1.581139 0 1.581139 
z
" id="m3aa8db2bca" style="stroke:#4878d0;"/>
    </defs>
    <g clip-path="url(#pd80655dfc0)">
     <use style="fill:#4878d0;stroke:#4878d0;" x="215.328579" xlink:href="#m3aa8db2bca" y="260.365513"/>
     <use style="fill:#4878d0;stroke:#4878d0;" x="291.412775" xlink:href="#m3aa8db2bca" y="252.103766"/>
     <use style="fill:#4878d0;stroke:#4878d0;" x="153.077873" xlink:href="#m3aa8db2bca" y="215.624979"/>
     <use style="fill:#4878d0;stroke:#4878d0;" x="236.078814" xlink:href="#m3aa8db2bca" y="251.627127"/>
     <use style="fill:#4878d0;stroke:#4878d0;" x="194.578343" xlink:href="#m3aa8db2bca" y="253.374804"/>
     <use style="fill:#4878d0;stroke:#4878d0;" x="238.384396" xlink:href="#m3aa8db2bca" y="210.413724"/>
     <use style="fill:#4878d0;stroke:#4878d0;" x="282.190448" xlink:href="#m3aa8db2bca" y="252.500966"/>
     <use style="fill:#4878d0;stroke:#4878d0;" x="268.356958" xlink:href="#m3aa8db2bca" y="248.248285"/>
     <use style="fill:#4878d0;stroke:#4878d0;" x="284.49603" xlink:href="#m3aa8db2bca" y="246.384096"/>
     <use style="fill:#4878d0;stroke:#4878d0;" x="277.579285" xlink:href="#m3aa8db2bca" y="253.374804"/>
     <use style="fill:#4878d0;stroke:#4878d0;" x="245.301141" xlink:href="#m3aa8db2bca" y="253.374804"/>
     <use style="fill:#4878d0;stroke:#4878d0;" x="226.856487" xlink:href="#m3aa8db2bca" y="231.404006"/>
     <use style="fill:#4878d0;stroke:#4878d0;" x="289.107193" xlink:href="#m3aa8db2bca" y="217.256144"/>
     <use style="fill:#4878d0;stroke:#4878d0;" x="272.968121" xlink:href="#m3aa8db2bca" y="248.714332"/>
     <use style="fill:#4878d0;stroke:#4878d0;" x="275.273703" xlink:href="#m3aa8db2bca" y="238.694317"/>
     <use style="fill:#4878d0;stroke:#4878d0;" x="176.13369" xlink:href="#m3aa8db2bca" y="257.569229"/>
     <use style="fill:#4878d0;stroke:#4878d0;" x="268.356958" xlink:href="#m3aa8db2bca" y="252.500966"/>
     <use style="fill:#4878d0;stroke:#4878d0;" x="284.49603" xlink:href="#m3aa8db2bca" y="229.696598"/>
     <use style="fill:#4878d0;stroke:#4878d0;" x="284.49603" xlink:href="#m3aa8db2bca" y="253.374804"/>
     <use style="fill:#4878d0;stroke:#4878d0;" x="157.689036" xlink:href="#m3aa8db2bca" y="253.374804"/>
     <use style="fill:#4878d0;stroke:#4878d0;" x="268.356958" xlink:href="#m3aa8db2bca" y="241.935463"/>
     <use style="fill:#4878d0;stroke:#4878d0;" x="203.80067" xlink:href="#m3aa8db2bca" y="239.393387"/>
     <use style="fill:#4878d0;stroke:#4878d0;" x="284.49603" xlink:href="#m3aa8db2bca" y="253.374804"/>
     <use style="fill:#4878d0;stroke:#4878d0;" x="270.662539" xlink:href="#m3aa8db2bca" y="242.8927"/>
     <use style="fill:#4878d0;stroke:#4878d0;" x="268.356958" xlink:href="#m3aa8db2bca" y="253.374804"/>
     <use style="fill:#4878d0;stroke:#4878d0;" x="189.96718" xlink:href="#m3aa8db2bca" y="253.374804"/>
     <use style="fill:#4878d0;stroke:#4878d0;" x="289.107193" xlink:href="#m3aa8db2bca" y="249.262623"/>
     <use style="fill:#4878d0;stroke:#4878d0;" x="279.884866" xlink:href="#m3aa8db2bca" y="253.374804"/>
     <use style="fill:#4878d0;stroke:#4878d0;" x="268.356958" xlink:href="#m3aa8db2bca" y="245.178801"/>
     <use style="fill:#4878d0;stroke:#4878d0;" x="272.968121" xlink:href="#m3aa8db2bca" y="250.753289"/>
     <use style="fill:#4878d0;stroke:#4878d0;" x="226.856487" xlink:href="#m3aa8db2bca" y="260.365513"/>
     <use style="fill:#4878d0;stroke:#4878d0;" x="139.244383" xlink:href="#m3aa8db2bca" y="211.430554"/>
     <use style="fill:#4878d0;stroke:#4878d0;" x="272.968121" xlink:href="#m3aa8db2bca" y="249.005611"/>
     <use style="fill:#4878d0;stroke:#4878d0;" x="86.216004" xlink:href="#m3aa8db2bca" y="253.374804"/>
     <use style="fill:#4878d0;stroke:#4878d0;" x="208.411834" xlink:href="#m3aa8db2bca" y="260.365513"/>
     <use style="fill:#4878d0;stroke:#4878d0;" x="189.96718" xlink:href="#m3aa8db2bca" y="243.587812"/>
     <use style="fill:#4878d0;stroke:#4878d0;" x="194.578343" xlink:href="#m3aa8db2bca" y="254.248643"/>
     <use style="fill:#4878d0;stroke:#4878d0;" x="224.550906" xlink:href="#m3aa8db2bca" y="246.384096"/>
     <use style="fill:#4878d0;stroke:#4878d0;" x="277.579285" xlink:href="#m3aa8db2bca" y="249.180379"/>
     <use style="fill:#4878d0;stroke:#4878d0;" x="261.440213" xlink:href="#m3aa8db2bca" y="247.793076"/>
     <use style="fill:#4878d0;stroke:#4878d0;" x="291.412775" xlink:href="#m3aa8db2bca" y="249.491077"/>
     <use style="fill:#4878d0;stroke:#4878d0;" x="291.412775" xlink:href="#m3aa8db2bca" y="258.035276"/>
     <use style="fill:#4878d0;stroke:#4878d0;" x="252.217886" xlink:href="#m3aa8db2bca" y="260.365513"/>
     <use style="fill:#4878d0;stroke:#4878d0;" x="224.550906" xlink:href="#m3aa8db2bca" y="232.982618"/>
     <use style="fill:#4878d0;stroke:#4878d0;" x="199.189507" xlink:href="#m3aa8db2bca" y="253.374804"/>
     <use style="fill:#4878d0;stroke:#4878d0;" x="282.190448" xlink:href="#m3aa8db2bca" y="250.112474"/>
     <use style="fill:#4878d0;stroke:#4878d0;" x="229.162069" xlink:href="#m3aa8db2bca" y="214.925908"/>
     <use style="fill:#4878d0;stroke:#4878d0;" x="222.245324" xlink:href="#m3aa8db2bca" y="253.374804"/>
     <use style="fill:#4878d0;stroke:#4878d0;" x="240.689977" xlink:href="#m3aa8db2bca" y="248.395573"/>
     <use style="fill:#4878d0;stroke:#4878d0;" x="279.884866" xlink:href="#m3aa8db2bca" y="253.374804"/>
     <use style="fill:#4878d0;stroke:#4878d0;" x="266.051376" xlink:href="#m3aa8db2bca" y="20.994015"/>
     <use style="fill:#4878d0;stroke:#4878d0;" x="259.134631" xlink:href="#m3aa8db2bca" y="260.365513"/>
     <use style="fill:#4878d0;stroke:#4878d0;" x="196.883925" xlink:href="#m3aa8db2bca" y="260.365513"/>
     <use style="fill:#4878d0;stroke:#4878d0;" x="266.051376" xlink:href="#m3aa8db2bca" y="253.374804"/>
     <use style="fill:#4878d0;stroke:#4878d0;" x="240.689977" xlink:href="#m3aa8db2bca" y="253.374804"/>
     <use style="fill:#4878d0;stroke:#4878d0;" x="252.217886" xlink:href="#m3aa8db2bca" y="260.365513"/>
     <use style="fill:#4878d0;stroke:#4878d0;" x="291.412775" xlink:href="#m3aa8db2bca" y="246.384096"/>
     <use style="fill:#4878d0;stroke:#4878d0;" x="254.523468" xlink:href="#m3aa8db2bca" y="246.384096"/>
     <use style="fill:#4878d0;stroke:#4878d0;" x="245.301141" xlink:href="#m3aa8db2bca" y="238.228269"/>
     <use style="fill:#4878d0;stroke:#4878d0;" x="291.412775" xlink:href="#m3aa8db2bca" y="251.627127"/>
     <use style="fill:#4878d0;stroke:#4878d0;" x="256.829049" xlink:href="#m3aa8db2bca" y="249.262623"/>
     <use style="fill:#4878d0;stroke:#4878d0;" x="233.773232" xlink:href="#m3aa8db2bca" y="253.374804"/>
     <use style="fill:#4878d0;stroke:#4878d0;" x="291.412775" xlink:href="#m3aa8db2bca" y="253.374804"/>
     <use style="fill:#4878d0;stroke:#4878d0;" x="284.49603" xlink:href="#m3aa8db2bca" y="236.597104"/>
     <use style="fill:#4878d0;stroke:#4878d0;" x="259.134631" xlink:href="#m3aa8db2bca" y="247.782237"/>
     <use style="fill:#4878d0;stroke:#4878d0;" x="252.217886" xlink:href="#m3aa8db2bca" y="219.669603"/>
     <use style="fill:#4878d0;stroke:#4878d0;" x="279.884866" xlink:href="#m3aa8db2bca" y="253.374804"/>
     <use style="fill:#4878d0;stroke:#4878d0;" x="157.689036" xlink:href="#m3aa8db2bca" y="221.281098"/>
     <use style="fill:#4878d0;stroke:#4878d0;" x="279.884866" xlink:href="#m3aa8db2bca" y="253.374804"/>
     <use style="fill:#4878d0;stroke:#4878d0;" x="291.412775" xlink:href="#m3aa8db2bca" y="250.578521"/>
     <use style="fill:#4878d0;stroke:#4878d0;" x="279.884866" xlink:href="#m3aa8db2bca" y="260.365513"/>
     <use style="fill:#4878d0;stroke:#4878d0;" x="199.189507" xlink:href="#m3aa8db2bca" y="253.374804"/>
     <use style="fill:#4878d0;stroke:#4878d0;" x="245.301141" xlink:href="#m3aa8db2bca" y="251.044568"/>
     <use style="fill:#4878d0;stroke:#4878d0;" x="192.272762" xlink:href="#m3aa8db2bca" y="260.365513"/>
     <use style="fill:#4878d0;stroke:#4878d0;" x="189.96718" xlink:href="#m3aa8db2bca" y="249.87945"/>
     <use style="fill:#4878d0;stroke:#4878d0;" x="270.662539" xlink:href="#m3aa8db2bca" y="244.05386"/>
     <use style="fill:#4878d0;stroke:#4878d0;" x="123.105311" xlink:href="#m3aa8db2bca" y="253.374804"/>
     <use style="fill:#4878d0;stroke:#4878d0;" x="256.829049" xlink:href="#m3aa8db2bca" y="246.384096"/>
     <use style="fill:#4878d0;stroke:#4878d0;" x="245.301141" xlink:href="#m3aa8db2bca" y="252.598059"/>
     <use style="fill:#4878d0;stroke:#4878d0;" x="217.63416" xlink:href="#m3aa8db2bca" y="190.458429"/>
     <use style="fill:#4878d0;stroke:#4878d0;" x="275.273703" xlink:href="#m3aa8db2bca" y="253.374804"/>
     <use style="fill:#4878d0;stroke:#4878d0;" x="201.495089" xlink:href="#m3aa8db2bca" y="253.374804"/>
     <use style="fill:#4878d0;stroke:#4878d0;" x="261.440213" xlink:href="#m3aa8db2bca" y="253.374804"/>
     <use style="fill:#4878d0;stroke:#4878d0;" x="259.134631" xlink:href="#m3aa8db2bca" y="236.674779"/>
     <use style="fill:#4878d0;stroke:#4878d0;" x="236.078814" xlink:href="#m3aa8db2bca" y="251.377459"/>
     <use style="fill:#4878d0;stroke:#4878d0;" x="259.134631" xlink:href="#m3aa8db2bca" y="250.440932"/>
     <use style="fill:#4878d0;stroke:#4878d0;" x="279.884866" xlink:href="#m3aa8db2bca" y="260.365513"/>
     <use style="fill:#4878d0;stroke:#4878d0;" x="275.273703" xlink:href="#m3aa8db2bca" y="251.627127"/>
     <use style="fill:#4878d0;stroke:#4878d0;" x="270.662539" xlink:href="#m3aa8db2bca" y="246.384096"/>
     <use style="fill:#4878d0;stroke:#4878d0;" x="270.662539" xlink:href="#m3aa8db2bca" y="253.374804"/>
     <use style="fill:#4878d0;stroke:#4878d0;" x="277.579285" xlink:href="#m3aa8db2bca" y="253.374804"/>
     <use style="fill:#4878d0;stroke:#4878d0;" x="245.301141" xlink:href="#m3aa8db2bca" y="232.402679"/>
     <use style="fill:#4878d0;stroke:#4878d0;" x="270.662539" xlink:href="#m3aa8db2bca" y="253.374804"/>
     <use style="fill:#4878d0;stroke:#4878d0;" x="236.078814" xlink:href="#m3aa8db2bca" y="253.374804"/>
     <use style="fill:#4878d0;stroke:#4878d0;" x="266.051376" xlink:href="#m3aa8db2bca" y="246.384096"/>
     <use style="fill:#4878d0;stroke:#4878d0;" x="266.051376" xlink:href="#m3aa8db2bca" y="252.064046"/>
     <use style="fill:#4878d0;stroke:#4878d0;" x="282.190448" xlink:href="#m3aa8db2bca" y="255.122481"/>
     <use style="fill:#4878d0;stroke:#4878d0;" x="245.301141" xlink:href="#m3aa8db2bca" y="231.703608"/>
     <use style="fill:#4878d0;stroke:#4878d0;" x="261.440213" xlink:href="#m3aa8db2bca" y="240.001275"/>
     <use style="fill:#4878d0;stroke:#4878d0;" x="247.606722" xlink:href="#m3aa8db2bca" y="234.309236"/>
     <use style="fill:#4878d0;stroke:#4878d0;" x="210.717415" xlink:href="#m3aa8db2bca" y="251.821313"/>
     <use style="fill:#4878d0;stroke:#4878d0;" x="284.49603" xlink:href="#m3aa8db2bca" y="247.751843"/>
     <use style="fill:#4878d0;stroke:#4878d0;" x="226.856487" xlink:href="#m3aa8db2bca" y="253.374804"/>
     <use style="fill:#4878d0;stroke:#4878d0;" x="263.745794" xlink:href="#m3aa8db2bca" y="245.218978"/>
     <use style="fill:#4878d0;stroke:#4878d0;" x="275.273703" xlink:href="#m3aa8db2bca" y="226.810112"/>
     <use style="fill:#4878d0;stroke:#4878d0;" x="201.495089" xlink:href="#m3aa8db2bca" y="253.374804"/>
     <use style="fill:#4878d0;stroke:#4878d0;" x="201.495089" xlink:href="#m3aa8db2bca" y="260.365513"/>
     <use style="fill:#4878d0;stroke:#4878d0;" x="286.801611" xlink:href="#m3aa8db2bca" y="254.539922"/>
     <use style="fill:#4878d0;stroke:#4878d0;" x="263.745794" xlink:href="#m3aa8db2bca" y="251.085811"/>
     <use style="fill:#4878d0;stroke:#4878d0;" x="259.134631" xlink:href="#m3aa8db2bca" y="248.131773"/>
     <use style="fill:#4878d0;stroke:#4878d0;" x="236.078814" xlink:href="#m3aa8db2bca" y="245.884759"/>
     <use style="fill:#4878d0;stroke:#4878d0;" x="268.356958" xlink:href="#m3aa8db2bca" y="243.426488"/>
     <use style="fill:#4878d0;stroke:#4878d0;" x="180.744853" xlink:href="#m3aa8db2bca" y="183.46772"/>
     <use style="fill:#4878d0;stroke:#4878d0;" x="272.968121" xlink:href="#m3aa8db2bca" y="247.382768"/>
     <use style="fill:#4878d0;stroke:#4878d0;" x="279.884866" xlink:href="#m3aa8db2bca" y="232.133806"/>
     <use style="fill:#4878d0;stroke:#4878d0;" x="277.579285" xlink:href="#m3aa8db2bca" y="254.772946"/>
     <use style="fill:#4878d0;stroke:#4878d0;" x="203.80067" xlink:href="#m3aa8db2bca" y="247.160841"/>
     <use style="fill:#4878d0;stroke:#4878d0;" x="245.301141" xlink:href="#m3aa8db2bca" y="246.850143"/>
     <use style="fill:#4878d0;stroke:#4878d0;" x="247.606722" xlink:href="#m3aa8db2bca" y="247.916065"/>
     <use style="fill:#4878d0;stroke:#4878d0;" x="291.412775" xlink:href="#m3aa8db2bca" y="232.402679"/>
     <use style="fill:#4878d0;stroke:#4878d0;" x="245.301141" xlink:href="#m3aa8db2bca" y="141.52347"/>
     <use style="fill:#4878d0;stroke:#4878d0;" x="282.190448" xlink:href="#m3aa8db2bca" y="248.714332"/>
     <use style="fill:#4878d0;stroke:#4878d0;" x="291.412775" xlink:href="#m3aa8db2bca" y="251.781985"/>
     <use style="fill:#4878d0;stroke:#4878d0;" x="270.662539" xlink:href="#m3aa8db2bca" y="249.341703"/>
     <use style="fill:#4878d0;stroke:#4878d0;" x="263.745794" xlink:href="#m3aa8db2bca" y="253.374804"/>
     <use style="fill:#4878d0;stroke:#4878d0;" x="279.884866" xlink:href="#m3aa8db2bca" y="211.430554"/>
     <use style="fill:#4878d0;stroke:#4878d0;" x="236.078814" xlink:href="#m3aa8db2bca" y="243.388078"/>
     <use style="fill:#4878d0;stroke:#4878d0;" x="118.494148" xlink:href="#m3aa8db2bca" y="253.374804"/>
     <use style="fill:#4878d0;stroke:#4878d0;" x="247.606722" xlink:href="#m3aa8db2bca" y="246.384096"/>
     <use style="fill:#4878d0;stroke:#4878d0;" x="213.022997" xlink:href="#m3aa8db2bca" y="239.393387"/>
     <use style="fill:#4878d0;stroke:#4878d0;" x="203.80067" xlink:href="#m3aa8db2bca" y="253.374804"/>
     <use style="fill:#4878d0;stroke:#4878d0;" x="206.106252" xlink:href="#m3aa8db2bca" y="153.174651"/>
     <use style="fill:#4878d0;stroke:#4878d0;" x="247.606722" xlink:href="#m3aa8db2bca" y="85.597803"/>
     <use style="fill:#4878d0;stroke:#4878d0;" x="270.662539" xlink:href="#m3aa8db2bca" y="221.042778"/>
     <use style="fill:#4878d0;stroke:#4878d0;" x="268.356958" xlink:href="#m3aa8db2bca" y="243.587812"/>
     <use style="fill:#4878d0;stroke:#4878d0;" x="272.968121" xlink:href="#m3aa8db2bca" y="253.374804"/>
     <use style="fill:#4878d0;stroke:#4878d0;" x="284.49603" xlink:href="#m3aa8db2bca" y="253.374804"/>
     <use style="fill:#4878d0;stroke:#4878d0;" x="100.049494" xlink:href="#m3aa8db2bca" y="216.949534"/>
     <use style="fill:#4878d0;stroke:#4878d0;" x="208.411834" xlink:href="#m3aa8db2bca" y="252.376132"/>
     <use style="fill:#4878d0;stroke:#4878d0;" x="164.605781" xlink:href="#m3aa8db2bca" y="260.365513"/>
     <use style="fill:#4878d0;stroke:#4878d0;" x="252.217886" xlink:href="#m3aa8db2bca" y="254.373477"/>
     <use style="fill:#4878d0;stroke:#4878d0;" x="270.662539" xlink:href="#m3aa8db2bca" y="247.782237"/>
     <use style="fill:#4878d0;stroke:#4878d0;" x="180.744853" xlink:href="#m3aa8db2bca" y="176.477012"/>
     <use style="fill:#4878d0;stroke:#4878d0;" x="266.051376" xlink:href="#m3aa8db2bca" y="260.365513"/>
     <use style="fill:#4878d0;stroke:#4878d0;" x="155.383455" xlink:href="#m3aa8db2bca" y="247.782237"/>
     <use style="fill:#4878d0;stroke:#4878d0;" x="291.412775" xlink:href="#m3aa8db2bca" y="246.384096"/>
     <use style="fill:#4878d0;stroke:#4878d0;" x="206.106252" xlink:href="#m3aa8db2bca" y="232.402679"/>
     <use style="fill:#4878d0;stroke:#4878d0;" x="275.273703" xlink:href="#m3aa8db2bca" y="246.384096"/>
     <use style="fill:#4878d0;stroke:#4878d0;" x="277.579285" xlink:href="#m3aa8db2bca" y="246.384096"/>
     <use style="fill:#4878d0;stroke:#4878d0;" x="245.301141" xlink:href="#m3aa8db2bca" y="246.384096"/>
     <use style="fill:#4878d0;stroke:#4878d0;" x="263.745794" xlink:href="#m3aa8db2bca" y="183.46772"/>
     <use style="fill:#4878d0;stroke:#4878d0;" x="247.606722" xlink:href="#m3aa8db2bca" y="52.700352"/>
     <use style="fill:#4878d0;stroke:#4878d0;" x="272.968121" xlink:href="#m3aa8db2bca" y="246.384096"/>
     <use style="fill:#4878d0;stroke:#4878d0;" x="291.412775" xlink:href="#m3aa8db2bca" y="251.855085"/>
     <use style="fill:#4878d0;stroke:#4878d0;" x="240.689977" xlink:href="#m3aa8db2bca" y="250.753289"/>
     <use style="fill:#4878d0;stroke:#4878d0;" x="229.162069" xlink:href="#m3aa8db2bca" y="260.365513"/>
     <use style="fill:#4878d0;stroke:#4878d0;" x="206.106252" xlink:href="#m3aa8db2bca" y="253.794247"/>
     <use style="fill:#4878d0;stroke:#4878d0;" x="282.190448" xlink:href="#m3aa8db2bca" y="251.044568"/>
     <use style="fill:#4878d0;stroke:#4878d0;" x="229.162069" xlink:href="#m3aa8db2bca" y="247.083167"/>
     <use style="fill:#4878d0;stroke:#4878d0;" x="166.911363" xlink:href="#m3aa8db2bca" y="260.365513"/>
     <use style="fill:#4878d0;stroke:#4878d0;" x="275.273703" xlink:href="#m3aa8db2bca" y="244.05386"/>
     <use style="fill:#4878d0;stroke:#4878d0;" x="252.217886" xlink:href="#m3aa8db2bca" y="248.926172"/>
     <use style="fill:#4878d0;stroke:#4878d0;" x="217.63416" xlink:href="#m3aa8db2bca" y="251.627127"/>
     <use style="fill:#4878d0;stroke:#4878d0;" x="259.134631" xlink:href="#m3aa8db2bca" y="225.044039"/>
     <use style="fill:#4878d0;stroke:#4878d0;" x="277.579285" xlink:href="#m3aa8db2bca" y="253.374804"/>
     <use style="fill:#4878d0;stroke:#4878d0;" x="249.912304" xlink:href="#m3aa8db2bca" y="239.393387"/>
     <use style="fill:#4878d0;stroke:#4878d0;" x="291.412775" xlink:href="#m3aa8db2bca" y="246.384096"/>
     <use style="fill:#4878d0;stroke:#4878d0;" x="259.134631" xlink:href="#m3aa8db2bca" y="251.223817"/>
     <use style="fill:#4878d0;stroke:#4878d0;" x="233.773232" xlink:href="#m3aa8db2bca" y="243.44064"/>
     <use style="fill:#4878d0;stroke:#4878d0;" x="275.273703" xlink:href="#m3aa8db2bca" y="253.374804"/>
     <use style="fill:#4878d0;stroke:#4878d0;" x="289.107193" xlink:href="#m3aa8db2bca" y="256.370822"/>
    </g>
   </g>
   <g id="PolyCollection_1">
    <path clip-path="url(#pd80655dfc0)" d="M 74.525456 216.109222 
L 74.525456 246.201918 
L 76.834323 246.135727 
L 79.143191 246.098938 
L 81.452058 246.081201 
L 83.760925 246.057575 
L 86.069793 245.956984 
L 88.37866 245.855799 
L 90.687527 245.756061 
L 92.996395 245.668837 
L 95.305262 245.602879 
L 97.614129 245.54374 
L 99.922997 245.523396 
L 102.231864 245.503052 
L 104.540731 245.482708 
L 106.849599 245.447064 
L 109.158466 245.421989 
L 111.467333 245.398718 
L 113.776201 245.355682 
L 116.085068 245.312067 
L 118.393935 245.268201 
L 120.702803 245.224121 
L 123.01167 245.154779 
L 125.320537 245.124962 
L 127.629405 245.092736 
L 129.938272 245.055129 
L 132.247139 245.035716 
L 134.556007 245.016302 
L 136.864874 244.996888 
L 139.173741 244.977475 
L 141.482609 244.958061 
L 143.791476 244.938647 
L 146.100343 244.919234 
L 148.409211 244.923681 
L 150.718078 244.831002 
L 153.026945 244.738997 
L 155.335813 244.743728 
L 157.64468 244.754898 
L 159.953547 244.710368 
L 162.262415 244.726535 
L 164.571282 244.692391 
L 166.880149 244.66793 
L 169.189017 244.709089 
L 171.497884 244.701864 
L 173.806752 244.651268 
L 176.115619 244.595592 
L 178.424486 244.539917 
L 180.733354 244.483024 
L 183.042221 244.491853 
L 185.351088 244.539018 
L 187.659956 244.564921 
L 189.968823 244.563962 
L 192.27769 244.64879 
L 194.586558 244.711748 
L 196.895425 244.681566 
L 199.204292 244.672158 
L 201.51316 244.658332 
L 203.822027 244.699192 
L 206.130894 244.736624 
L 208.439762 244.726536 
L 210.748629 244.768012 
L 213.057496 244.901389 
L 215.366364 244.965624 
L 217.675231 244.981613 
L 219.984098 244.977845 
L 222.292966 244.961972 
L 224.601833 245.034187 
L 226.9107 245.060315 
L 229.219568 245.144485 
L 231.528435 245.228515 
L 233.837302 245.29548 
L 236.14617 245.309495 
L 238.455037 245.389787 
L 240.763904 245.48039 
L 243.072772 245.553306 
L 245.381639 245.649846 
L 247.690506 245.737322 
L 249.999374 245.840321 
L 252.308241 245.901701 
L 254.617108 246.036301 
L 256.925976 246.132418 
L 259.234843 246.230912 
L 261.54371 246.323224 
L 263.852578 246.407813 
L 266.161445 246.510734 
L 268.470313 246.615357 
L 270.77918 246.691939 
L 273.088047 246.826342 
L 275.396915 247.011283 
L 277.705782 247.21398 
L 280.014649 247.391492 
L 282.323517 247.662805 
L 284.632384 247.798311 
L 286.941251 248.166988 
L 289.250119 248.25713 
L 291.558986 248.525749 
L 293.867853 248.721427 
L 296.176721 248.863066 
L 298.485588 249.076358 
L 300.794455 249.303322 
L 303.103323 249.536873 
L 303.103323 236.714589 
L 303.103323 236.714589 
L 300.794455 236.731108 
L 298.485588 236.773431 
L 296.176721 236.82751 
L 293.867853 236.869997 
L 291.558986 236.925846 
L 289.250119 236.972914 
L 286.941251 236.891966 
L 284.632384 236.849444 
L 282.323517 236.90673 
L 280.014649 236.891956 
L 277.705782 236.942164 
L 275.396915 236.924382 
L 273.088047 236.860586 
L 270.77918 236.817583 
L 268.470313 236.775967 
L 266.161445 236.734418 
L 263.852578 236.651699 
L 261.54371 236.523431 
L 259.234843 236.369386 
L 256.925976 236.260388 
L 254.617108 236.112721 
L 252.308241 235.991515 
L 249.999374 235.966515 
L 247.690506 235.930005 
L 245.381639 235.892546 
L 243.072772 235.863295 
L 240.763904 235.743125 
L 238.455037 235.589745 
L 236.14617 235.499789 
L 233.837302 235.430187 
L 231.528435 235.349764 
L 229.219568 235.267096 
L 226.9107 235.032871 
L 224.601833 234.831916 
L 222.292966 234.772732 
L 219.984098 234.59718 
L 217.675231 234.378927 
L 215.366364 234.206648 
L 213.057496 233.920726 
L 210.748629 233.665793 
L 208.439762 233.427905 
L 206.130894 233.193956 
L 203.822027 232.953929 
L 201.51316 232.696303 
L 199.204292 232.461827 
L 196.895425 232.253091 
L 194.586558 232.13161 
L 192.27769 231.930348 
L 189.968823 231.709195 
L 187.659956 231.428975 
L 185.351088 231.09069 
L 183.042221 230.837472 
L 180.733354 230.553833 
L 178.424486 230.298712 
L 176.115619 230.073391 
L 173.806752 229.747787 
L 171.497884 229.459222 
L 169.189017 229.138082 
L 166.880149 228.816942 
L 164.571282 228.495803 
L 162.262415 228.174663 
L 159.953547 227.853523 
L 157.64468 227.532383 
L 155.335813 227.211243 
L 153.026945 226.892028 
L 150.718078 226.624637 
L 148.409211 226.31443 
L 146.100343 225.972967 
L 143.791476 225.663654 
L 141.482609 225.449397 
L 139.173741 225.131067 
L 136.864874 224.809793 
L 134.556007 224.488519 
L 132.247139 224.16682 
L 129.938272 223.844152 
L 127.629405 223.521485 
L 125.320537 223.198817 
L 123.01167 222.876149 
L 120.702803 222.553482 
L 118.393935 222.23287 
L 116.085068 221.922924 
L 113.776201 221.589317 
L 111.467333 221.266693 
L 109.158466 220.944069 
L 106.849599 220.621445 
L 104.540731 220.298821 
L 102.231864 219.976196 
L 99.922997 219.653572 
L 97.614129 219.330948 
L 95.305262 219.008572 
L 92.996395 218.686422 
L 90.687527 218.364272 
L 88.37866 218.042122 
L 86.069793 217.719972 
L 83.760925 217.397822 
L 81.452058 217.075672 
L 79.143191 216.753522 
L 76.834323 216.431372 
L 74.525456 216.109222 
z
" style="fill:#4878d0;fill-opacity:0.15;"/>
   </g>
   <g id="PathCollection_2">
    <defs>
     <path d="M 0 1.581139 
C 0.419323 1.581139 0.821528 1.41454 1.118034 1.118034 
C 1.41454 0.821528 1.581139 0.419323 1.581139 0 
C 1.581139 -0.419323 1.41454 -0.821528 1.118034 -1.118034 
C 0.821528 -1.41454 0.419323 -1.581139 0 -1.581139 
C -0.419323 -1.581139 -0.821528 -1.41454 -1.118034 -1.118034 
C -1.41454 -0.821528 -1.581139 -0.419323 -1.581139 0 
C -1.581139 0.419323 -1.41454 0.821528 -1.118034 1.118034 
C -0.821528 1.41454 -0.419323 1.581139 0 1.581139 
z
" id="m85ae6b02b6" style="stroke:#ee854a;"/>
    </defs>
    <g clip-path="url(#pd80655dfc0)">
     <use style="fill:#ee854a;stroke:#ee854a;" x="291.412775" xlink:href="#m85ae6b02b6" y="260.365513"/>
     <use style="fill:#ee854a;stroke:#ee854a;" x="277.579285" xlink:href="#m85ae6b02b6" y="252.103766"/>
     <use style="fill:#ee854a;stroke:#ee854a;" x="291.412775" xlink:href="#m85ae6b02b6" y="236.166907"/>
     <use style="fill:#ee854a;stroke:#ee854a;" x="236.078814" xlink:href="#m85ae6b02b6" y="215.624979"/>
     <use style="fill:#ee854a;stroke:#ee854a;" x="291.412775" xlink:href="#m85ae6b02b6" y="248.494498"/>
     <use style="fill:#ee854a;stroke:#ee854a;" x="233.773232" xlink:href="#m85ae6b02b6" y="256.870158"/>
     <use style="fill:#ee854a;stroke:#ee854a;" x="268.356958" xlink:href="#m85ae6b02b6" y="238.875237"/>
     <use style="fill:#ee854a;stroke:#ee854a;" x="233.773232" xlink:href="#m85ae6b02b6" y="251.627127"/>
     <use style="fill:#ee854a;stroke:#ee854a;" x="238.384396" xlink:href="#m85ae6b02b6" y="253.374804"/>
     <use style="fill:#ee854a;stroke:#ee854a;" x="224.550906" xlink:href="#m85ae6b02b6" y="210.413724"/>
     <use style="fill:#ee854a;stroke:#ee854a;" x="284.49603" xlink:href="#m85ae6b02b6" y="232.402679"/>
     <use style="fill:#ee854a;stroke:#ee854a;" x="203.80067" xlink:href="#m85ae6b02b6" y="251.377459"/>
     <use style="fill:#ee854a;stroke:#ee854a;" x="201.495089" xlink:href="#m85ae6b02b6" y="186.963075"/>
     <use style="fill:#ee854a;stroke:#ee854a;" x="231.467651" xlink:href="#m85ae6b02b6" y="246.384096"/>
     <use style="fill:#ee854a;stroke:#ee854a;" x="282.190448" xlink:href="#m85ae6b02b6" y="253.258292"/>
     <use style="fill:#ee854a;stroke:#ee854a;" x="266.051376" xlink:href="#m85ae6b02b6" y="255.842113"/>
     <use style="fill:#ee854a;stroke:#ee854a;" x="236.078814" xlink:href="#m85ae6b02b6" y="252.500966"/>
     <use style="fill:#ee854a;stroke:#ee854a;" x="272.968121" xlink:href="#m85ae6b02b6" y="247.382768"/>
     <use style="fill:#ee854a;stroke:#ee854a;" x="233.773232" xlink:href="#m85ae6b02b6" y="248.131773"/>
     <use style="fill:#ee854a;stroke:#ee854a;" x="259.134631" xlink:href="#m85ae6b02b6" y="248.248285"/>
     <use style="fill:#ee854a;stroke:#ee854a;" x="291.412775" xlink:href="#m85ae6b02b6" y="255.039259"/>
     <use style="fill:#ee854a;stroke:#ee854a;" x="266.051376" xlink:href="#m85ae6b02b6" y="246.384096"/>
     <use style="fill:#ee854a;stroke:#ee854a;" x="275.273703" xlink:href="#m85ae6b02b6" y="253.374804"/>
     <use style="fill:#ee854a;stroke:#ee854a;" x="268.356958" xlink:href="#m85ae6b02b6" y="251.976662"/>
     <use style="fill:#ee854a;stroke:#ee854a;" x="242.995559" xlink:href="#m85ae6b02b6" y="253.374804"/>
     <use style="fill:#ee854a;stroke:#ee854a;" x="226.856487" xlink:href="#m85ae6b02b6" y="231.404006"/>
     <use style="fill:#ee854a;stroke:#ee854a;" x="266.051376" xlink:href="#m85ae6b02b6" y="217.256144"/>
     <use style="fill:#ee854a;stroke:#ee854a;" x="261.440213" xlink:href="#m85ae6b02b6" y="248.714332"/>
     <use style="fill:#ee854a;stroke:#ee854a;" x="270.662539" xlink:href="#m85ae6b02b6" y="238.694317"/>
     <use style="fill:#ee854a;stroke:#ee854a;" x="268.356958" xlink:href="#m85ae6b02b6" y="258.967371"/>
     <use style="fill:#ee854a;stroke:#ee854a;" x="266.051376" xlink:href="#m85ae6b02b6" y="257.569229"/>
     <use style="fill:#ee854a;stroke:#ee854a;" x="233.773232" xlink:href="#m85ae6b02b6" y="252.500966"/>
     <use style="fill:#ee854a;stroke:#ee854a;" x="291.412775" xlink:href="#m85ae6b02b6" y="236.45729"/>
     <use style="fill:#ee854a;stroke:#ee854a;" x="291.412775" xlink:href="#m85ae6b02b6" y="239.055127"/>
     <use style="fill:#ee854a;stroke:#ee854a;" x="282.190448" xlink:href="#m85ae6b02b6" y="229.696598"/>
     <use style="fill:#ee854a;stroke:#ee854a;" x="252.217886" xlink:href="#m85ae6b02b6" y="253.374804"/>
     <use style="fill:#ee854a;stroke:#ee854a;" x="224.550906" xlink:href="#m85ae6b02b6" y="253.374804"/>
     <use style="fill:#ee854a;stroke:#ee854a;" x="291.412775" xlink:href="#m85ae6b02b6" y="253.374804"/>
     <use style="fill:#ee854a;stroke:#ee854a;" x="261.440213" xlink:href="#m85ae6b02b6" y="241.935463"/>
     <use style="fill:#ee854a;stroke:#ee854a;" x="222.245324" xlink:href="#m85ae6b02b6" y="247.782237"/>
     <use style="fill:#ee854a;stroke:#ee854a;" x="291.412775" xlink:href="#m85ae6b02b6" y="253.374804"/>
     <use style="fill:#ee854a;stroke:#ee854a;" x="236.078814" xlink:href="#m85ae6b02b6" y="239.393387"/>
     <use style="fill:#ee854a;stroke:#ee854a;" x="266.051376" xlink:href="#m85ae6b02b6" y="253.374804"/>
     <use style="fill:#ee854a;stroke:#ee854a;" x="261.440213" xlink:href="#m85ae6b02b6" y="242.8927"/>
     <use style="fill:#ee854a;stroke:#ee854a;" x="249.912304" xlink:href="#m85ae6b02b6" y="253.374804"/>
     <use style="fill:#ee854a;stroke:#ee854a;" x="226.856487" xlink:href="#m85ae6b02b6" y="251.821313"/>
     <use style="fill:#ee854a;stroke:#ee854a;" x="192.272762" xlink:href="#m85ae6b02b6" y="256.171088"/>
     <use style="fill:#ee854a;stroke:#ee854a;" x="213.022997" xlink:href="#m85ae6b02b6" y="253.374804"/>
     <use style="fill:#ee854a;stroke:#ee854a;" x="254.523468" xlink:href="#m85ae6b02b6" y="249.262623"/>
     <use style="fill:#ee854a;stroke:#ee854a;" x="233.773232" xlink:href="#m85ae6b02b6" y="248.926172"/>
     <use style="fill:#ee854a;stroke:#ee854a;" x="238.384396" xlink:href="#m85ae6b02b6" y="250.063416"/>
     <use style="fill:#ee854a;stroke:#ee854a;" x="286.801611" xlink:href="#m85ae6b02b6" y="253.374804"/>
     <use style="fill:#ee854a;stroke:#ee854a;" x="291.412775" xlink:href="#m85ae6b02b6" y="253.374804"/>
     <use style="fill:#ee854a;stroke:#ee854a;" x="148.46671" xlink:href="#m85ae6b02b6" y="245.042129"/>
     <use style="fill:#ee854a;stroke:#ee854a;" x="247.606722" xlink:href="#m85ae6b02b6" y="245.178801"/>
     <use style="fill:#ee854a;stroke:#ee854a;" x="176.13369" xlink:href="#m85ae6b02b6" y="253.374804"/>
     <use style="fill:#ee854a;stroke:#ee854a;" x="254.523468" xlink:href="#m85ae6b02b6" y="250.753289"/>
     <use style="fill:#ee854a;stroke:#ee854a;" x="277.579285" xlink:href="#m85ae6b02b6" y="248.04855"/>
     <use style="fill:#ee854a;stroke:#ee854a;" x="272.968121" xlink:href="#m85ae6b02b6" y="251.422444"/>
     <use style="fill:#ee854a;stroke:#ee854a;" x="259.134631" xlink:href="#m85ae6b02b6" y="260.365513"/>
     <use style="fill:#ee854a;stroke:#ee854a;" x="291.412775" xlink:href="#m85ae6b02b6" y="260.365513"/>
     <use style="fill:#ee854a;stroke:#ee854a;" x="291.412775" xlink:href="#m85ae6b02b6" y="253.374804"/>
     <use style="fill:#ee854a;stroke:#ee854a;" x="263.745794" xlink:href="#m85ae6b02b6" y="208.757636"/>
     <use style="fill:#ee854a;stroke:#ee854a;" x="146.161128" xlink:href="#m85ae6b02b6" y="211.430554"/>
     <use style="fill:#ee854a;stroke:#ee854a;" x="270.662539" xlink:href="#m85ae6b02b6" y="244.05386"/>
     <use style="fill:#ee854a;stroke:#ee854a;" x="284.49603" xlink:href="#m85ae6b02b6" y="249.005611"/>
     <use style="fill:#ee854a;stroke:#ee854a;" x="252.217886" xlink:href="#m85ae6b02b6" y="253.374804"/>
     <use style="fill:#ee854a;stroke:#ee854a;" x="270.662539" xlink:href="#m85ae6b02b6" y="260.365513"/>
     <use style="fill:#ee854a;stroke:#ee854a;" x="199.189507" xlink:href="#m85ae6b02b6" y="246.384096"/>
     <use style="fill:#ee854a;stroke:#ee854a;" x="208.411834" xlink:href="#m85ae6b02b6" y="226.965461"/>
     <use style="fill:#ee854a;stroke:#ee854a;" x="277.579285" xlink:href="#m85ae6b02b6" y="243.587812"/>
     <use style="fill:#ee854a;stroke:#ee854a;" x="291.412775" xlink:href="#m85ae6b02b6" y="240.761135"/>
     <use style="fill:#ee854a;stroke:#ee854a;" x="291.412775" xlink:href="#m85ae6b02b6" y="253.374804"/>
     <use style="fill:#ee854a;stroke:#ee854a;" x="291.412775" xlink:href="#m85ae6b02b6" y="251.044568"/>
     <use style="fill:#ee854a;stroke:#ee854a;" x="242.995559" xlink:href="#m85ae6b02b6" y="253.374804"/>
     <use style="fill:#ee854a;stroke:#ee854a;" x="201.495089" xlink:href="#m85ae6b02b6" y="246.384096"/>
     <use style="fill:#ee854a;stroke:#ee854a;" x="233.773232" xlink:href="#m85ae6b02b6" y="249.180379"/>
     <use style="fill:#ee854a;stroke:#ee854a;" x="233.773232" xlink:href="#m85ae6b02b6" y="253.374804"/>
     <use style="fill:#ee854a;stroke:#ee854a;" x="291.412775" xlink:href="#m85ae6b02b6" y="246.384096"/>
     <use style="fill:#ee854a;stroke:#ee854a;" x="219.939742" xlink:href="#m85ae6b02b6" y="247.793076"/>
     <use style="fill:#ee854a;stroke:#ee854a;" x="192.272762" xlink:href="#m85ae6b02b6" y="231.838912"/>
     <use style="fill:#ee854a;stroke:#ee854a;" x="252.217886" xlink:href="#m85ae6b02b6" y="249.491077"/>
     <use style="fill:#ee854a;stroke:#ee854a;" x="240.689977" xlink:href="#m85ae6b02b6" y="253.374804"/>
     <use style="fill:#ee854a;stroke:#ee854a;" x="222.245324" xlink:href="#m85ae6b02b6" y="242.094343"/>
     <use style="fill:#ee854a;stroke:#ee854a;" x="272.968121" xlink:href="#m85ae6b02b6" y="258.035276"/>
     <use style="fill:#ee854a;stroke:#ee854a;" x="291.412775" xlink:href="#m85ae6b02b6" y="252.02572"/>
     <use style="fill:#ee854a;stroke:#ee854a;" x="252.217886" xlink:href="#m85ae6b02b6" y="260.365513"/>
     <use style="fill:#ee854a;stroke:#ee854a;" x="284.49603" xlink:href="#m85ae6b02b6" y="251.535144"/>
     <use style="fill:#ee854a;stroke:#ee854a;" x="203.80067" xlink:href="#m85ae6b02b6" y="232.982618"/>
     <use style="fill:#ee854a;stroke:#ee854a;" x="222.245324" xlink:href="#m85ae6b02b6" y="253.374804"/>
     <use style="fill:#ee854a;stroke:#ee854a;" x="277.579285" xlink:href="#m85ae6b02b6" y="250.112474"/>
     <use style="fill:#ee854a;stroke:#ee854a;" x="185.356017" xlink:href="#m85ae6b02b6" y="214.925908"/>
     <use style="fill:#ee854a;stroke:#ee854a;" x="249.912304" xlink:href="#m85ae6b02b6" y="253.374804"/>
     <use style="fill:#ee854a;stroke:#ee854a;" x="291.412775" xlink:href="#m85ae6b02b6" y="245.22556"/>
     <use style="fill:#ee854a;stroke:#ee854a;" x="254.523468" xlink:href="#m85ae6b02b6" y="256.370822"/>
     <use style="fill:#ee854a;stroke:#ee854a;" x="279.884866" xlink:href="#m85ae6b02b6" y="248.395573"/>
     <use style="fill:#ee854a;stroke:#ee854a;" x="282.190448" xlink:href="#m85ae6b02b6" y="253.374804"/>
     <use style="fill:#ee854a;stroke:#ee854a;" x="259.134631" xlink:href="#m85ae6b02b6" y="20.994015"/>
     <use style="fill:#ee854a;stroke:#ee854a;" x="291.412775" xlink:href="#m85ae6b02b6" y="258.035276"/>
     <use style="fill:#ee854a;stroke:#ee854a;" x="272.968121" xlink:href="#m85ae6b02b6" y="260.365513"/>
     <use style="fill:#ee854a;stroke:#ee854a;" x="215.328579" xlink:href="#m85ae6b02b6" y="250.174409"/>
     <use style="fill:#ee854a;stroke:#ee854a;" x="291.412775" xlink:href="#m85ae6b02b6" y="254.030183"/>
     <use style="fill:#ee854a;stroke:#ee854a;" x="215.328579" xlink:href="#m85ae6b02b6" y="258.617835"/>
     <use style="fill:#ee854a;stroke:#ee854a;" x="219.939742" xlink:href="#m85ae6b02b6" y="260.365513"/>
     <use style="fill:#ee854a;stroke:#ee854a;" x="291.412775" xlink:href="#m85ae6b02b6" y="259.491674"/>
     <use style="fill:#ee854a;stroke:#ee854a;" x="254.523468" xlink:href="#m85ae6b02b6" y="246.384096"/>
     <use style="fill:#ee854a;stroke:#ee854a;" x="270.662539" xlink:href="#m85ae6b02b6" y="253.374804"/>
     <use style="fill:#ee854a;stroke:#ee854a;" x="275.273703" xlink:href="#m85ae6b02b6" y="253.374804"/>
     <use style="fill:#ee854a;stroke:#ee854a;" x="291.412775" xlink:href="#m85ae6b02b6" y="258.617835"/>
     <use style="fill:#ee854a;stroke:#ee854a;" x="236.078814" xlink:href="#m85ae6b02b6" y="260.365513"/>
     <use style="fill:#ee854a;stroke:#ee854a;" x="284.49603" xlink:href="#m85ae6b02b6" y="246.384096"/>
     <use style="fill:#ee854a;stroke:#ee854a;" x="236.078814" xlink:href="#m85ae6b02b6" y="245.589697"/>
     <use style="fill:#ee854a;stroke:#ee854a;" x="291.412775" xlink:href="#m85ae6b02b6" y="256.370822"/>
     <use style="fill:#ee854a;stroke:#ee854a;" x="291.412775" xlink:href="#m85ae6b02b6" y="253.374804"/>
     <use style="fill:#ee854a;stroke:#ee854a;" x="270.662539" xlink:href="#m85ae6b02b6" y="246.384096"/>
     <use style="fill:#ee854a;stroke:#ee854a;" x="229.162069" xlink:href="#m85ae6b02b6" y="238.228269"/>
     <use style="fill:#ee854a;stroke:#ee854a;" x="272.968121" xlink:href="#m85ae6b02b6" y="251.627127"/>
     <use style="fill:#ee854a;stroke:#ee854a;" x="256.829049" xlink:href="#m85ae6b02b6" y="249.262623"/>
     <use style="fill:#ee854a;stroke:#ee854a;" x="291.412775" xlink:href="#m85ae6b02b6" y="253.374804"/>
     <use style="fill:#ee854a;stroke:#ee854a;" x="136.938801" xlink:href="#m85ae6b02b6" y="250.267823"/>
     <use style="fill:#ee854a;stroke:#ee854a;" x="286.801611" xlink:href="#m85ae6b02b6" y="245.718314"/>
     <use style="fill:#ee854a;stroke:#ee854a;" x="233.773232" xlink:href="#m85ae6b02b6" y="257.369495"/>
     <use style="fill:#ee854a;stroke:#ee854a;" x="291.412775" xlink:href="#m85ae6b02b6" y="252.421526"/>
     <use style="fill:#ee854a;stroke:#ee854a;" x="229.162069" xlink:href="#m85ae6b02b6" y="253.374804"/>
     <use style="fill:#ee854a;stroke:#ee854a;" x="291.412775" xlink:href="#m85ae6b02b6" y="253.374804"/>
     <use style="fill:#ee854a;stroke:#ee854a;" x="252.217886" xlink:href="#m85ae6b02b6" y="239.513917"/>
     <use style="fill:#ee854a;stroke:#ee854a;" x="270.662539" xlink:href="#m85ae6b02b6" y="253.374804"/>
     <use style="fill:#ee854a;stroke:#ee854a;" x="270.662539" xlink:href="#m85ae6b02b6" y="249.66761"/>
     <use style="fill:#ee854a;stroke:#ee854a;" x="279.884866" xlink:href="#m85ae6b02b6" y="258.617835"/>
     <use style="fill:#ee854a;stroke:#ee854a;" x="291.412775" xlink:href="#m85ae6b02b6" y="259.491674"/>
     <use style="fill:#ee854a;stroke:#ee854a;" x="236.078814" xlink:href="#m85ae6b02b6" y="236.597104"/>
     <use style="fill:#ee854a;stroke:#ee854a;" x="183.050435" xlink:href="#m85ae6b02b6" y="247.782237"/>
     <use style="fill:#ee854a;stroke:#ee854a;" x="291.412775" xlink:href="#m85ae6b02b6" y="253.742736"/>
     <use style="fill:#ee854a;stroke:#ee854a;" x="263.745794" xlink:href="#m85ae6b02b6" y="219.669603"/>
     <use style="fill:#ee854a;stroke:#ee854a;" x="277.579285" xlink:href="#m85ae6b02b6" y="253.374804"/>
     <use style="fill:#ee854a;stroke:#ee854a;" x="178.439272" xlink:href="#m85ae6b02b6" y="221.281098"/>
     <use style="fill:#ee854a;stroke:#ee854a;" x="242.995559" xlink:href="#m85ae6b02b6" y="238.159733"/>
     <use style="fill:#ee854a;stroke:#ee854a;" x="100.049494" xlink:href="#m85ae6b02b6" y="204.439845"/>
     <use style="fill:#ee854a;stroke:#ee854a;" x="291.412775" xlink:href="#m85ae6b02b6" y="254.772946"/>
     <use style="fill:#ee854a;stroke:#ee854a;" x="291.412775" xlink:href="#m85ae6b02b6" y="246.384096"/>
     <use style="fill:#ee854a;stroke:#ee854a;" x="286.801611" xlink:href="#m85ae6b02b6" y="253.374804"/>
     <use style="fill:#ee854a;stroke:#ee854a;" x="178.439272" xlink:href="#m85ae6b02b6" y="241.4906"/>
     <use style="fill:#ee854a;stroke:#ee854a;" x="266.051376" xlink:href="#m85ae6b02b6" y="250.578521"/>
     <use style="fill:#ee854a;stroke:#ee854a;" x="236.078814" xlink:href="#m85ae6b02b6" y="247.432702"/>
     <use style="fill:#ee854a;stroke:#ee854a;" x="266.051376" xlink:href="#m85ae6b02b6" y="260.365513"/>
     <use style="fill:#ee854a;stroke:#ee854a;" x="233.773232" xlink:href="#m85ae6b02b6" y="251.575841"/>
     <use style="fill:#ee854a;stroke:#ee854a;" x="291.412775" xlink:href="#m85ae6b02b6" y="253.374804"/>
     <use style="fill:#ee854a;stroke:#ee854a;" x="249.912304" xlink:href="#m85ae6b02b6" y="253.374804"/>
     <use style="fill:#ee854a;stroke:#ee854a;" x="249.912304" xlink:href="#m85ae6b02b6" y="251.044568"/>
     <use style="fill:#ee854a;stroke:#ee854a;" x="176.13369" xlink:href="#m85ae6b02b6" y="251.627127"/>
     <use style="fill:#ee854a;stroke:#ee854a;" x="242.995559" xlink:href="#m85ae6b02b6" y="249.87945"/>
     <use style="fill:#ee854a;stroke:#ee854a;" x="254.523468" xlink:href="#m85ae6b02b6" y="244.05386"/>
     <use style="fill:#ee854a;stroke:#ee854a;" x="252.217886" xlink:href="#m85ae6b02b6" y="183.46772"/>
     <use style="fill:#ee854a;stroke:#ee854a;" x="153.077873" xlink:href="#m85ae6b02b6" y="247.382768"/>
     <use style="fill:#ee854a;stroke:#ee854a;" x="148.46671" xlink:href="#m85ae6b02b6" y="253.374804"/>
     <use style="fill:#ee854a;stroke:#ee854a;" x="180.744853" xlink:href="#m85ae6b02b6" y="246.384096"/>
     <use style="fill:#ee854a;stroke:#ee854a;" x="291.412775" xlink:href="#m85ae6b02b6" y="244.261916"/>
     <use style="fill:#ee854a;stroke:#ee854a;" x="233.773232" xlink:href="#m85ae6b02b6" y="239.632944"/>
     <use style="fill:#ee854a;stroke:#ee854a;" x="210.717415" xlink:href="#m85ae6b02b6" y="252.598059"/>
     <use style="fill:#ee854a;stroke:#ee854a;" x="106.966239" xlink:href="#m85ae6b02b6" y="197.037919"/>
     <use style="fill:#ee854a;stroke:#ee854a;" x="203.80067" xlink:href="#m85ae6b02b6" y="190.458429"/>
     <use style="fill:#ee854a;stroke:#ee854a;" x="252.217886" xlink:href="#m85ae6b02b6" y="244.985954"/>
     <use style="fill:#ee854a;stroke:#ee854a;" x="291.412775" xlink:href="#m85ae6b02b6" y="246.384096"/>
     <use style="fill:#ee854a;stroke:#ee854a;" x="185.356017" xlink:href="#m85ae6b02b6" y="253.374804"/>
     <use style="fill:#ee854a;stroke:#ee854a;" x="266.051376" xlink:href="#m85ae6b02b6" y="253.374804"/>
     <use style="fill:#ee854a;stroke:#ee854a;" x="236.078814" xlink:href="#m85ae6b02b6" y="253.374804"/>
     <use style="fill:#ee854a;stroke:#ee854a;" x="233.773232" xlink:href="#m85ae6b02b6" y="236.674779"/>
     <use style="fill:#ee854a;stroke:#ee854a;" x="201.495089" xlink:href="#m85ae6b02b6" y="253.374804"/>
     <use style="fill:#ee854a;stroke:#ee854a;" x="279.884866" xlink:href="#m85ae6b02b6" y="242.365485"/>
     <use style="fill:#ee854a;stroke:#ee854a;" x="233.773232" xlink:href="#m85ae6b02b6" y="251.377459"/>
     <use style="fill:#ee854a;stroke:#ee854a;" x="252.217886" xlink:href="#m85ae6b02b6" y="250.440932"/>
     <use style="fill:#ee854a;stroke:#ee854a;" x="259.134631" xlink:href="#m85ae6b02b6" y="259.412234"/>
     <use style="fill:#ee854a;stroke:#ee854a;" x="245.301141" xlink:href="#m85ae6b02b6" y="253.374804"/>
     <use style="fill:#ee854a;stroke:#ee854a;" x="291.412775" xlink:href="#m85ae6b02b6" y="251.341144"/>
     <use style="fill:#ee854a;stroke:#ee854a;" x="284.49603" xlink:href="#m85ae6b02b6" y="260.365513"/>
     <use style="fill:#ee854a;stroke:#ee854a;" x="277.579285" xlink:href="#m85ae6b02b6" y="251.627127"/>
     <use style="fill:#ee854a;stroke:#ee854a;" x="291.412775" xlink:href="#m85ae6b02b6" y="242.201131"/>
     <use style="fill:#ee854a;stroke:#ee854a;" x="231.467651" xlink:href="#m85ae6b02b6" y="248.362598"/>
     <use style="fill:#ee854a;stroke:#ee854a;" x="222.245324" xlink:href="#m85ae6b02b6" y="246.384096"/>
     <use style="fill:#ee854a;stroke:#ee854a;" x="282.190448" xlink:href="#m85ae6b02b6" y="253.374804"/>
     <use style="fill:#ee854a;stroke:#ee854a;" x="259.134631" xlink:href="#m85ae6b02b6" y="232.812254"/>
     <use style="fill:#ee854a;stroke:#ee854a;" x="240.689977" xlink:href="#m85ae6b02b6" y="249.87945"/>
     <use style="fill:#ee854a;stroke:#ee854a;" x="252.217886" xlink:href="#m85ae6b02b6" y="253.374804"/>
     <use style="fill:#ee854a;stroke:#ee854a;" x="291.412775" xlink:href="#m85ae6b02b6" y="247.655134"/>
     <use style="fill:#ee854a;stroke:#ee854a;" x="291.412775" xlink:href="#m85ae6b02b6" y="246.602555"/>
     <use style="fill:#ee854a;stroke:#ee854a;" x="194.578343" xlink:href="#m85ae6b02b6" y="253.374804"/>
     <use style="fill:#ee854a;stroke:#ee854a;" x="240.689977" xlink:href="#m85ae6b02b6" y="232.402679"/>
     <use style="fill:#ee854a;stroke:#ee854a;" x="268.356958" xlink:href="#m85ae6b02b6" y="249.960737"/>
     <use style="fill:#ee854a;stroke:#ee854a;" x="268.356958" xlink:href="#m85ae6b02b6" y="253.374804"/>
     <use style="fill:#ee854a;stroke:#ee854a;" x="240.689977" xlink:href="#m85ae6b02b6" y="249.673841"/>
     <use style="fill:#ee854a;stroke:#ee854a;" x="263.745794" xlink:href="#m85ae6b02b6" y="253.374804"/>
     <use style="fill:#ee854a;stroke:#ee854a;" x="266.051376" xlink:href="#m85ae6b02b6" y="246.384096"/>
     <use style="fill:#ee854a;stroke:#ee854a;" x="263.745794" xlink:href="#m85ae6b02b6" y="250.378786"/>
     <use style="fill:#ee854a;stroke:#ee854a;" x="291.412775" xlink:href="#m85ae6b02b6" y="250.480801"/>
     <use style="fill:#ee854a;stroke:#ee854a;" x="259.134631" xlink:href="#m85ae6b02b6" y="252.064046"/>
     <use style="fill:#ee854a;stroke:#ee854a;" x="282.190448" xlink:href="#m85ae6b02b6" y="253.374804"/>
     <use style="fill:#ee854a;stroke:#ee854a;" x="277.579285" xlink:href="#m85ae6b02b6" y="253.374804"/>
     <use style="fill:#ee854a;stroke:#ee854a;" x="263.745794" xlink:href="#m85ae6b02b6" y="255.122481"/>
     <use style="fill:#ee854a;stroke:#ee854a;" x="247.606722" xlink:href="#m85ae6b02b6" y="231.703608"/>
     <use style="fill:#ee854a;stroke:#ee854a;" x="254.523468" xlink:href="#m85ae6b02b6" y="240.001275"/>
     <use style="fill:#ee854a;stroke:#ee854a;" x="249.912304" xlink:href="#m85ae6b02b6" y="234.309236"/>
     <use style="fill:#ee854a;stroke:#ee854a;" x="247.606722" xlink:href="#m85ae6b02b6" y="251.821313"/>
     <use style="fill:#ee854a;stroke:#ee854a;" x="252.217886" xlink:href="#m85ae6b02b6" y="249.561691"/>
     <use style="fill:#ee854a;stroke:#ee854a;" x="272.968121" xlink:href="#m85ae6b02b6" y="249.232162"/>
     <use style="fill:#ee854a;stroke:#ee854a;" x="270.662539" xlink:href="#m85ae6b02b6" y="247.751843"/>
     <use style="fill:#ee854a;stroke:#ee854a;" x="291.412775" xlink:href="#m85ae6b02b6" y="239.393387"/>
     <use style="fill:#ee854a;stroke:#ee854a;" x="256.829049" xlink:href="#m85ae6b02b6" y="253.374804"/>
     <use style="fill:#ee854a;stroke:#ee854a;" x="291.412775" xlink:href="#m85ae6b02b6" y="260.365513"/>
     <use style="fill:#ee854a;stroke:#ee854a;" x="247.606722" xlink:href="#m85ae6b02b6" y="249.87945"/>
     <use style="fill:#ee854a;stroke:#ee854a;" x="291.412775" xlink:href="#m85ae6b02b6" y="252.986431"/>
     <use style="fill:#ee854a;stroke:#ee854a;" x="261.440213" xlink:href="#m85ae6b02b6" y="256.199816"/>
     <use style="fill:#ee854a;stroke:#ee854a;" x="291.412775" xlink:href="#m85ae6b02b6" y="252.500966"/>
     <use style="fill:#ee854a;stroke:#ee854a;" x="261.440213" xlink:href="#m85ae6b02b6" y="260.365513"/>
     <use style="fill:#ee854a;stroke:#ee854a;" x="266.051376" xlink:href="#m85ae6b02b6" y="237.941814"/>
     <use style="fill:#ee854a;stroke:#ee854a;" x="254.523468" xlink:href="#m85ae6b02b6" y="265.025985"/>
     <use style="fill:#ee854a;stroke:#ee854a;" x="272.968121" xlink:href="#m85ae6b02b6" y="245.218978"/>
     <use style="fill:#ee854a;stroke:#ee854a;" x="279.884866" xlink:href="#m85ae6b02b6" y="226.810112"/>
     <use style="fill:#ee854a;stroke:#ee854a;" x="213.022997" xlink:href="#m85ae6b02b6" y="220.751498"/>
     <use style="fill:#ee854a;stroke:#ee854a;" x="176.13369" xlink:href="#m85ae6b02b6" y="252.209686"/>
     <use style="fill:#ee854a;stroke:#ee854a;" x="203.80067" xlink:href="#m85ae6b02b6" y="253.374804"/>
     <use style="fill:#ee854a;stroke:#ee854a;" x="203.80067" xlink:href="#m85ae6b02b6" y="260.365513"/>
     <use style="fill:#ee854a;stroke:#ee854a;" x="268.356958" xlink:href="#m85ae6b02b6" y="254.539922"/>
     <use style="fill:#ee854a;stroke:#ee854a;" x="279.884866" xlink:href="#m85ae6b02b6" y="251.085811"/>
     <use style="fill:#ee854a;stroke:#ee854a;" x="252.217886" xlink:href="#m85ae6b02b6" y="248.131773"/>
     <use style="fill:#ee854a;stroke:#ee854a;" x="291.412775" xlink:href="#m85ae6b02b6" y="260.365513"/>
     <use style="fill:#ee854a;stroke:#ee854a;" x="256.829049" xlink:href="#m85ae6b02b6" y="245.884759"/>
     <use style="fill:#ee854a;stroke:#ee854a;" x="259.134631" xlink:href="#m85ae6b02b6" y="243.426488"/>
     <use style="fill:#ee854a;stroke:#ee854a;" x="233.773232" xlink:href="#m85ae6b02b6" y="183.46772"/>
     <use style="fill:#ee854a;stroke:#ee854a;" x="247.606722" xlink:href="#m85ae6b02b6" y="247.382768"/>
     <use style="fill:#ee854a;stroke:#ee854a;" x="240.689977" xlink:href="#m85ae6b02b6" y="245.648232"/>
     <use style="fill:#ee854a;stroke:#ee854a;" x="266.051376" xlink:href="#m85ae6b02b6" y="232.133806"/>
     <use style="fill:#ee854a;stroke:#ee854a;" x="268.356958" xlink:href="#m85ae6b02b6" y="254.772946"/>
     <use style="fill:#ee854a;stroke:#ee854a;" x="261.440213" xlink:href="#m85ae6b02b6" y="247.160841"/>
     <use style="fill:#ee854a;stroke:#ee854a;" x="275.273703" xlink:href="#m85ae6b02b6" y="246.850143"/>
     <use style="fill:#ee854a;stroke:#ee854a;" x="291.412775" xlink:href="#m85ae6b02b6" y="252.133034"/>
     <use style="fill:#ee854a;stroke:#ee854a;" x="261.440213" xlink:href="#m85ae6b02b6" y="247.916065"/>
     <use style="fill:#ee854a;stroke:#ee854a;" x="291.412775" xlink:href="#m85ae6b02b6" y="242.768212"/>
     <use style="fill:#ee854a;stroke:#ee854a;" x="291.412775" xlink:href="#m85ae6b02b6" y="253.374804"/>
     <use style="fill:#ee854a;stroke:#ee854a;" x="291.412775" xlink:href="#m85ae6b02b6" y="246.384096"/>
     <use style="fill:#ee854a;stroke:#ee854a;" x="231.467651" xlink:href="#m85ae6b02b6" y="243.896136"/>
     <use style="fill:#ee854a;stroke:#ee854a;" x="263.745794" xlink:href="#m85ae6b02b6" y="141.52347"/>
     <use style="fill:#ee854a;stroke:#ee854a;" x="100.049494" xlink:href="#m85ae6b02b6" y="253.374804"/>
     <use style="fill:#ee854a;stroke:#ee854a;" x="238.384396" xlink:href="#m85ae6b02b6" y="248.714332"/>
     <use style="fill:#ee854a;stroke:#ee854a;" x="272.968121" xlink:href="#m85ae6b02b6" y="251.781985"/>
     <use style="fill:#ee854a;stroke:#ee854a;" x="291.412775" xlink:href="#m85ae6b02b6" y="252.410569"/>
     <use style="fill:#ee854a;stroke:#ee854a;" x="291.412775" xlink:href="#m85ae6b02b6" y="247.382768"/>
     <use style="fill:#ee854a;stroke:#ee854a;" x="259.134631" xlink:href="#m85ae6b02b6" y="249.341703"/>
     <use style="fill:#ee854a;stroke:#ee854a;" x="252.217886" xlink:href="#m85ae6b02b6" y="260.365513"/>
     <use style="fill:#ee854a;stroke:#ee854a;" x="268.356958" xlink:href="#m85ae6b02b6" y="248.325959"/>
     <use style="fill:#ee854a;stroke:#ee854a;" x="256.829049" xlink:href="#m85ae6b02b6" y="253.374804"/>
     <use style="fill:#ee854a;stroke:#ee854a;" x="240.689977" xlink:href="#m85ae6b02b6" y="211.430554"/>
     <use style="fill:#ee854a;stroke:#ee854a;" x="268.356958" xlink:href="#m85ae6b02b6" y="243.388078"/>
     <use style="fill:#ee854a;stroke:#ee854a;" x="282.190448" xlink:href="#m85ae6b02b6" y="260.365513"/>
     <use style="fill:#ee854a;stroke:#ee854a;" x="215.328579" xlink:href="#m85ae6b02b6" y="196.886666"/>
     <use style="fill:#ee854a;stroke:#ee854a;" x="136.938801" xlink:href="#m85ae6b02b6" y="249.380114"/>
     <use style="fill:#ee854a;stroke:#ee854a;" x="194.578343" xlink:href="#m85ae6b02b6" y="252.124906"/>
     <use style="fill:#ee854a;stroke:#ee854a;" x="254.523468" xlink:href="#m85ae6b02b6" y="246.384096"/>
     <use style="fill:#ee854a;stroke:#ee854a;" x="240.689977" xlink:href="#m85ae6b02b6" y="239.393387"/>
     <use style="fill:#ee854a;stroke:#ee854a;" x="240.689977" xlink:href="#m85ae6b02b6" y="253.374804"/>
     <use style="fill:#ee854a;stroke:#ee854a;" x="173.828108" xlink:href="#m85ae6b02b6" y="167.156067"/>
     <use style="fill:#ee854a;stroke:#ee854a;" x="187.661598" xlink:href="#m85ae6b02b6" y="153.174651"/>
     <use style="fill:#ee854a;stroke:#ee854a;" x="247.606722" xlink:href="#m85ae6b02b6" y="85.597803"/>
     <use style="fill:#ee854a;stroke:#ee854a;" x="261.440213" xlink:href="#m85ae6b02b6" y="221.042778"/>
     <use style="fill:#ee854a;stroke:#ee854a;" x="226.856487" xlink:href="#m85ae6b02b6" y="243.388078"/>
     <use style="fill:#ee854a;stroke:#ee854a;" x="249.912304" xlink:href="#m85ae6b02b6" y="256.870158"/>
     <use style="fill:#ee854a;stroke:#ee854a;" x="291.412775" xlink:href="#m85ae6b02b6" y="260.365513"/>
     <use style="fill:#ee854a;stroke:#ee854a;" x="242.995559" xlink:href="#m85ae6b02b6" y="221.916616"/>
     <use style="fill:#ee854a;stroke:#ee854a;" x="256.829049" xlink:href="#m85ae6b02b6" y="243.587812"/>
     <use style="fill:#ee854a;stroke:#ee854a;" x="247.606722" xlink:href="#m85ae6b02b6" y="253.374804"/>
     <use style="fill:#ee854a;stroke:#ee854a;" x="291.412775" xlink:href="#m85ae6b02b6" y="253.374804"/>
     <use style="fill:#ee854a;stroke:#ee854a;" x="245.301141" xlink:href="#m85ae6b02b6" y="256.703713"/>
     <use style="fill:#ee854a;stroke:#ee854a;" x="259.134631" xlink:href="#m85ae6b02b6" y="253.374804"/>
     <use style="fill:#ee854a;stroke:#ee854a;" x="215.328579" xlink:href="#m85ae6b02b6" y="216.949534"/>
     <use style="fill:#ee854a;stroke:#ee854a;" x="256.829049" xlink:href="#m85ae6b02b6" y="252.376132"/>
     <use style="fill:#ee854a;stroke:#ee854a;" x="252.217886" xlink:href="#m85ae6b02b6" y="235.198962"/>
     <use style="fill:#ee854a;stroke:#ee854a;" x="176.13369" xlink:href="#m85ae6b02b6" y="260.365513"/>
     <use style="fill:#ee854a;stroke:#ee854a;" x="245.301141" xlink:href="#m85ae6b02b6" y="254.373477"/>
     <use style="fill:#ee854a;stroke:#ee854a;" x="266.051376" xlink:href="#m85ae6b02b6" y="247.782237"/>
     <use style="fill:#ee854a;stroke:#ee854a;" x="254.523468" xlink:href="#m85ae6b02b6" y="253.374804"/>
     <use style="fill:#ee854a;stroke:#ee854a;" x="206.106252" xlink:href="#m85ae6b02b6" y="176.477012"/>
     <use style="fill:#ee854a;stroke:#ee854a;" x="291.412775" xlink:href="#m85ae6b02b6" y="253.374804"/>
     <use style="fill:#ee854a;stroke:#ee854a;" x="261.440213" xlink:href="#m85ae6b02b6" y="260.365513"/>
     <use style="fill:#ee854a;stroke:#ee854a;" x="249.912304" xlink:href="#m85ae6b02b6" y="247.782237"/>
     <use style="fill:#ee854a;stroke:#ee854a;" x="240.689977" xlink:href="#m85ae6b02b6" y="246.384096"/>
     <use style="fill:#ee854a;stroke:#ee854a;" x="229.162069" xlink:href="#m85ae6b02b6" y="232.402679"/>
     <use style="fill:#ee854a;stroke:#ee854a;" x="291.412775" xlink:href="#m85ae6b02b6" y="252.209686"/>
     <use style="fill:#ee854a;stroke:#ee854a;" x="256.829049" xlink:href="#m85ae6b02b6" y="246.384096"/>
     <use style="fill:#ee854a;stroke:#ee854a;" x="254.523468" xlink:href="#m85ae6b02b6" y="246.384096"/>
     <use style="fill:#ee854a;stroke:#ee854a;" x="240.689977" xlink:href="#m85ae6b02b6" y="246.384096"/>
     <use style="fill:#ee854a;stroke:#ee854a;" x="240.689977" xlink:href="#m85ae6b02b6" y="183.46772"/>
     <use style="fill:#ee854a;stroke:#ee854a;" x="127.716474" xlink:href="#m85ae6b02b6" y="246.384096"/>
     <use style="fill:#ee854a;stroke:#ee854a;" x="213.022997" xlink:href="#m85ae6b02b6" y="176.477012"/>
     <use style="fill:#ee854a;stroke:#ee854a;" x="238.384396" xlink:href="#m85ae6b02b6" y="52.700352"/>
     <use style="fill:#ee854a;stroke:#ee854a;" x="291.412775" xlink:href="#m85ae6b02b6" y="255.122481"/>
     <use style="fill:#ee854a;stroke:#ee854a;" x="215.328579" xlink:href="#m85ae6b02b6" y="253.374804"/>
     <use style="fill:#ee854a;stroke:#ee854a;" x="247.606722" xlink:href="#m85ae6b02b6" y="246.384096"/>
     <use style="fill:#ee854a;stroke:#ee854a;" x="233.773232" xlink:href="#m85ae6b02b6" y="251.855085"/>
     <use style="fill:#ee854a;stroke:#ee854a;" x="176.13369" xlink:href="#m85ae6b02b6" y="252.739285"/>
     <use style="fill:#ee854a;stroke:#ee854a;" x="272.968121" xlink:href="#m85ae6b02b6" y="246.384096"/>
     <use style="fill:#ee854a;stroke:#ee854a;" x="213.022997" xlink:href="#m85ae6b02b6" y="247.782237"/>
     <use style="fill:#ee854a;stroke:#ee854a;" x="291.412775" xlink:href="#m85ae6b02b6" y="254.010323"/>
     <use style="fill:#ee854a;stroke:#ee854a;" x="136.938801" xlink:href="#m85ae6b02b6" y="254.373477"/>
     <use style="fill:#ee854a;stroke:#ee854a;" x="240.689977" xlink:href="#m85ae6b02b6" y="250.753289"/>
     <use style="fill:#ee854a;stroke:#ee854a;" x="249.912304" xlink:href="#m85ae6b02b6" y="260.365513"/>
     <use style="fill:#ee854a;stroke:#ee854a;" x="210.717415" xlink:href="#m85ae6b02b6" y="253.794247"/>
     <use style="fill:#ee854a;stroke:#ee854a;" x="208.411834" xlink:href="#m85ae6b02b6" y="254.248643"/>
     <use style="fill:#ee854a;stroke:#ee854a;" x="291.412775" xlink:href="#m85ae6b02b6" y="233.179424"/>
     <use style="fill:#ee854a;stroke:#ee854a;" x="268.356958" xlink:href="#m85ae6b02b6" y="251.044568"/>
     <use style="fill:#ee854a;stroke:#ee854a;" x="219.939742" xlink:href="#m85ae6b02b6" y="247.083167"/>
     <use style="fill:#ee854a;stroke:#ee854a;" x="192.272762" xlink:href="#m85ae6b02b6" y="260.365513"/>
     <use style="fill:#ee854a;stroke:#ee854a;" x="203.80067" xlink:href="#m85ae6b02b6" y="246.384096"/>
     <use style="fill:#ee854a;stroke:#ee854a;" x="261.440213" xlink:href="#m85ae6b02b6" y="244.05386"/>
     <use style="fill:#ee854a;stroke:#ee854a;" x="279.884866" xlink:href="#m85ae6b02b6" y="253.374804"/>
     <use style="fill:#ee854a;stroke:#ee854a;" x="261.440213" xlink:href="#m85ae6b02b6" y="248.926172"/>
     <use style="fill:#ee854a;stroke:#ee854a;" x="231.467651" xlink:href="#m85ae6b02b6" y="251.627127"/>
     <use style="fill:#ee854a;stroke:#ee854a;" x="282.190448" xlink:href="#m85ae6b02b6" y="252.963586"/>
     <use style="fill:#ee854a;stroke:#ee854a;" x="272.968121" xlink:href="#m85ae6b02b6" y="252.675733"/>
     <use style="fill:#ee854a;stroke:#ee854a;" x="252.217886" xlink:href="#m85ae6b02b6" y="225.044039"/>
     <use style="fill:#ee854a;stroke:#ee854a;" x="279.884866" xlink:href="#m85ae6b02b6" y="253.374804"/>
     <use style="fill:#ee854a;stroke:#ee854a;" x="272.968121" xlink:href="#m85ae6b02b6" y="230.620734"/>
     <use style="fill:#ee854a;stroke:#ee854a;" x="242.995559" xlink:href="#m85ae6b02b6" y="239.393387"/>
     <use style="fill:#ee854a;stroke:#ee854a;" x="291.412775" xlink:href="#m85ae6b02b6" y="256.901934"/>
     <use style="fill:#ee854a;stroke:#ee854a;" x="291.412775" xlink:href="#m85ae6b02b6" y="255.122481"/>
     <use style="fill:#ee854a;stroke:#ee854a;" x="254.523468" xlink:href="#m85ae6b02b6" y="246.384096"/>
     <use style="fill:#ee854a;stroke:#ee854a;" x="238.384396" xlink:href="#m85ae6b02b6" y="251.223817"/>
     <use style="fill:#ee854a;stroke:#ee854a;" x="206.106252" xlink:href="#m85ae6b02b6" y="247.981972"/>
     <use style="fill:#ee854a;stroke:#ee854a;" x="275.273703" xlink:href="#m85ae6b02b6" y="246.850143"/>
     <use style="fill:#ee854a;stroke:#ee854a;" x="263.745794" xlink:href="#m85ae6b02b6" y="243.44064"/>
     <use style="fill:#ee854a;stroke:#ee854a;" x="240.689977" xlink:href="#m85ae6b02b6" y="253.374804"/>
     <use style="fill:#ee854a;stroke:#ee854a;" x="261.440213" xlink:href="#m85ae6b02b6" y="256.370822"/>
     <use style="fill:#ee854a;stroke:#ee854a;" x="291.412775" xlink:href="#m85ae6b02b6" y="253.374804"/>
     <use style="fill:#ee854a;stroke:#ee854a;" x="268.356958" xlink:href="#m85ae6b02b6" y="235.898033"/>
     <use style="fill:#ee854a;stroke:#ee854a;" x="242.995559" xlink:href="#m85ae6b02b6" y="252.376132"/>
    </g>
   </g>
   <g id="PolyCollection_2">
    <path clip-path="url(#pd80655dfc0)" d="M 63.096562 207.91414 
L 63.096562 232.974193 
L 65.636317 233.149929 
L 68.176071 233.32738 
L 70.715825 233.486667 
L 73.255579 233.655504 
L 75.795333 233.837065 
L 78.335087 234.018627 
L 80.874841 234.200188 
L 83.414595 234.38175 
L 85.954349 234.563312 
L 88.494103 234.744873 
L 91.033857 234.926435 
L 93.573611 235.106659 
L 96.113365 235.284608 
L 98.65312 235.44226 
L 101.192874 235.597964 
L 103.732628 235.753669 
L 106.272382 235.909373 
L 108.812136 236.065078 
L 111.35189 236.220783 
L 113.891644 236.376487 
L 116.431398 236.532192 
L 118.971152 236.713388 
L 121.510906 236.908854 
L 124.05066 237.104321 
L 126.590414 237.299787 
L 129.130168 237.495254 
L 131.669923 237.69072 
L 134.209677 237.886186 
L 136.749431 238.081653 
L 139.289185 238.277119 
L 141.828939 238.472585 
L 144.368693 238.66333 
L 146.908447 238.813589 
L 149.448201 238.963849 
L 151.987955 239.114108 
L 154.527709 239.264367 
L 157.067463 239.41376 
L 159.607217 239.563145 
L 162.146971 239.749039 
L 164.686726 239.93308 
L 167.22648 240.113828 
L 169.766234 240.30025 
L 172.305988 240.4429 
L 174.845742 240.639289 
L 177.385496 240.835678 
L 179.92525 241.032066 
L 182.465004 241.228455 
L 185.004758 241.417608 
L 187.544512 241.603962 
L 190.084266 241.790663 
L 192.62402 241.976748 
L 195.163774 242.162657 
L 197.703529 242.341244 
L 200.243283 242.513493 
L 202.783037 242.685742 
L 205.322791 242.85799 
L 207.862545 243.030014 
L 210.402299 243.201996 
L 212.942053 243.39884 
L 215.481807 243.611861 
L 218.021561 243.812738 
L 220.561315 244.003816 
L 223.101069 244.153141 
L 225.640823 244.343433 
L 228.180577 244.560053 
L 230.720331 244.743381 
L 233.260086 244.938955 
L 235.79984 245.14282 
L 238.339594 245.370055 
L 240.879348 245.574163 
L 243.419102 245.794804 
L 245.958856 246.004257 
L 248.49861 246.214883 
L 251.038364 246.483265 
L 253.578118 246.704027 
L 256.117872 246.987868 
L 258.657626 247.28876 
L 261.19738 247.546198 
L 263.737134 247.773636 
L 266.276889 248.020144 
L 268.816643 248.335759 
L 271.356397 248.603242 
L 273.896151 249.021928 
L 276.435905 249.370686 
L 278.975659 249.695107 
L 281.515413 250.084515 
L 284.055167 250.46645 
L 286.594921 250.852849 
L 289.134675 251.206652 
L 291.674429 251.590662 
L 294.214183 251.946856 
L 296.753937 252.350358 
L 299.293692 252.730807 
L 301.833446 253.14293 
L 304.3732 253.610096 
L 306.912954 254.066144 
L 309.452708 254.481667 
L 311.992462 254.895092 
L 314.532216 255.319868 
L 314.532216 247.730973 
L 314.532216 247.730973 
L 311.992462 247.512893 
L 309.452708 247.286169 
L 306.912954 247.058826 
L 304.3732 246.832284 
L 301.833446 246.605543 
L 299.293692 246.376536 
L 296.753937 246.149195 
L 294.214183 245.904334 
L 291.674429 245.655376 
L 289.134675 245.451412 
L 286.594921 245.241655 
L 284.055167 245.015591 
L 281.515413 244.781909 
L 278.975659 244.55604 
L 276.435905 244.258776 
L 273.896151 243.940084 
L 271.356397 243.666785 
L 268.816643 243.369773 
L 266.276889 243.072279 
L 263.737134 242.799689 
L 261.19738 242.518995 
L 258.657626 242.245204 
L 256.117872 241.940155 
L 253.578118 241.582217 
L 251.038364 241.179386 
L 248.49861 240.789492 
L 245.958856 240.342098 
L 243.419102 239.904593 
L 240.879348 239.49047 
L 238.339594 239.103306 
L 235.79984 238.725022 
L 233.260086 238.347157 
L 230.720331 237.894447 
L 228.180577 237.582665 
L 225.640823 237.177056 
L 223.101069 236.708137 
L 220.561315 236.228316 
L 218.021561 235.799903 
L 215.481807 235.372799 
L 212.942053 234.922827 
L 210.402299 234.467534 
L 207.862545 234.048281 
L 205.322791 233.632693 
L 202.783037 233.21787 
L 200.243283 232.809937 
L 197.703529 232.386399 
L 195.163774 231.951114 
L 192.62402 231.49329 
L 190.084266 231.085069 
L 187.544512 230.653508 
L 185.004758 230.200062 
L 182.465004 229.751839 
L 179.92525 229.309778 
L 177.385496 228.864139 
L 174.845742 228.399555 
L 172.305988 227.948735 
L 169.766234 227.46893 
L 167.22648 226.983128 
L 164.686726 226.510091 
L 162.146971 226.037054 
L 159.607217 225.564017 
L 157.067463 225.09141 
L 154.527709 224.61934 
L 151.987955 224.147411 
L 149.448201 223.675481 
L 146.908447 223.203552 
L 144.368693 222.750236 
L 141.828939 222.298911 
L 139.289185 221.85063 
L 136.749431 221.397856 
L 134.209677 220.945462 
L 131.669923 220.493588 
L 129.130168 220.042444 
L 126.590414 219.591836 
L 124.05066 219.141227 
L 121.510906 218.690618 
L 118.971152 218.240009 
L 116.431398 217.7894 
L 113.891644 217.315509 
L 111.35189 216.83868 
L 108.812136 216.393113 
L 106.272382 215.951358 
L 103.732628 215.509604 
L 101.192874 215.06785 
L 98.65312 214.597961 
L 96.113365 214.120291 
L 93.573611 213.642622 
L 91.033857 213.164952 
L 88.494103 212.687282 
L 85.954349 212.209613 
L 83.414595 211.732104 
L 80.874841 211.254808 
L 78.335087 210.778199 
L 75.795333 210.302269 
L 73.255579 209.825062 
L 70.715825 209.347331 
L 68.176071 208.869601 
L 65.636317 208.391871 
L 63.096562 207.91414 
z
" style="fill:#ee854a;fill-opacity:0.15;"/>
   </g>
   <g id="line2d_13">
    <path clip-path="url(#pd80655dfc0)" d="M 74.525456 233.6259 
L 76.834323 233.728232 
L 79.143191 233.830563 
L 81.452058 233.932894 
L 83.760925 234.035226 
L 86.069793 234.137557 
L 88.37866 234.239888 
L 90.687527 234.34222 
L 92.996395 234.444551 
L 95.305262 234.546882 
L 97.614129 234.649214 
L 99.922997 234.751545 
L 102.231864 234.853876 
L 104.540731 234.956208 
L 106.849599 235.058539 
L 109.158466 235.16087 
L 111.467333 235.263202 
L 113.776201 235.365533 
L 116.085068 235.467864 
L 118.393935 235.570196 
L 120.702803 235.672527 
L 123.01167 235.774858 
L 125.320537 235.87719 
L 127.629405 235.979521 
L 129.938272 236.081852 
L 132.247139 236.184183 
L 134.556007 236.286515 
L 136.864874 236.388846 
L 139.173741 236.491177 
L 141.482609 236.593509 
L 143.791476 236.69584 
L 146.100343 236.798171 
L 148.409211 236.900503 
L 150.718078 237.002834 
L 153.026945 237.105165 
L 155.335813 237.207497 
L 157.64468 237.309828 
L 159.953547 237.412159 
L 162.262415 237.514491 
L 164.571282 237.616822 
L 166.880149 237.719153 
L 169.189017 237.821485 
L 171.497884 237.923816 
L 173.806752 238.026147 
L 176.115619 238.128479 
L 178.424486 238.23081 
L 180.733354 238.333141 
L 183.042221 238.435473 
L 185.351088 238.537804 
L 187.659956 238.640135 
L 189.968823 238.742467 
L 192.27769 238.844798 
L 194.586558 238.947129 
L 196.895425 239.049461 
L 199.204292 239.151792 
L 201.51316 239.254123 
L 203.822027 239.356455 
L 206.130894 239.458786 
L 208.439762 239.561117 
L 210.748629 239.663449 
L 213.057496 239.76578 
L 215.366364 239.868111 
L 217.675231 239.970443 
L 219.984098 240.072774 
L 222.292966 240.175105 
L 224.601833 240.277437 
L 226.9107 240.379768 
L 229.219568 240.482099 
L 231.528435 240.58443 
L 233.837302 240.686762 
L 236.14617 240.789093 
L 238.455037 240.891424 
L 240.763904 240.993756 
L 243.072772 241.096087 
L 245.381639 241.198418 
L 247.690506 241.30075 
L 249.999374 241.403081 
L 252.308241 241.505412 
L 254.617108 241.607744 
L 256.925976 241.710075 
L 259.234843 241.812406 
L 261.54371 241.914738 
L 263.852578 242.017069 
L 266.161445 242.1194 
L 268.470313 242.221732 
L 270.77918 242.324063 
L 273.088047 242.426394 
L 275.396915 242.528726 
L 277.705782 242.631057 
L 280.014649 242.733388 
L 282.323517 242.83572 
L 284.632384 242.938051 
L 286.941251 243.040382 
L 289.250119 243.142714 
L 291.558986 243.245045 
L 293.867853 243.347376 
L 296.176721 243.449708 
L 298.485588 243.552039 
L 300.794455 243.65437 
L 303.103323 243.756702 
" style="fill:none;stroke:#4878d0;stroke-linecap:round;stroke-width:3.375;"/>
   </g>
   <g id="line2d_14">
    <path clip-path="url(#pd80655dfc0)" d="M 63.096562 220.992047 
L 65.636317 221.301854 
L 68.176071 221.611661 
L 70.715825 221.921468 
L 73.255579 222.231275 
L 75.795333 222.541082 
L 78.335087 222.850889 
L 80.874841 223.160696 
L 83.414595 223.470503 
L 85.954349 223.78031 
L 88.494103 224.090117 
L 91.033857 224.399924 
L 93.573611 224.709731 
L 96.113365 225.019538 
L 98.65312 225.329345 
L 101.192874 225.639152 
L 103.732628 225.94896 
L 106.272382 226.258767 
L 108.812136 226.568574 
L 111.35189 226.878381 
L 113.891644 227.188188 
L 116.431398 227.497995 
L 118.971152 227.807802 
L 121.510906 228.117609 
L 124.05066 228.427416 
L 126.590414 228.737223 
L 129.130168 229.04703 
L 131.669923 229.356837 
L 134.209677 229.666644 
L 136.749431 229.976451 
L 139.289185 230.286258 
L 141.828939 230.596065 
L 144.368693 230.905872 
L 146.908447 231.215679 
L 149.448201 231.525486 
L 151.987955 231.835293 
L 154.527709 232.1451 
L 157.067463 232.454908 
L 159.607217 232.764715 
L 162.146971 233.074522 
L 164.686726 233.384329 
L 167.22648 233.694136 
L 169.766234 234.003943 
L 172.305988 234.31375 
L 174.845742 234.623557 
L 177.385496 234.933364 
L 179.92525 235.243171 
L 182.465004 235.552978 
L 185.004758 235.862785 
L 187.544512 236.172592 
L 190.084266 236.482399 
L 192.62402 236.792206 
L 195.163774 237.102013 
L 197.703529 237.41182 
L 200.243283 237.721627 
L 202.783037 238.031434 
L 205.322791 238.341241 
L 207.862545 238.651048 
L 210.402299 238.960856 
L 212.942053 239.270663 
L 215.481807 239.58047 
L 218.021561 239.890277 
L 220.561315 240.200084 
L 223.101069 240.509891 
L 225.640823 240.819698 
L 228.180577 241.129505 
L 230.720331 241.439312 
L 233.260086 241.749119 
L 235.79984 242.058926 
L 238.339594 242.368733 
L 240.879348 242.67854 
L 243.419102 242.988347 
L 245.958856 243.298154 
L 248.49861 243.607961 
L 251.038364 243.917768 
L 253.578118 244.227575 
L 256.117872 244.537382 
L 258.657626 244.847189 
L 261.19738 245.156996 
L 263.737134 245.466804 
L 266.276889 245.776611 
L 268.816643 246.086418 
L 271.356397 246.396225 
L 273.896151 246.706032 
L 276.435905 247.015839 
L 278.975659 247.325646 
L 281.515413 247.635453 
L 284.055167 247.94526 
L 286.594921 248.255067 
L 289.134675 248.564874 
L 291.674429 248.874681 
L 294.214183 249.184488 
L 296.753937 249.494295 
L 299.293692 249.804102 
L 301.833446 250.113909 
L 304.3732 250.423716 
L 306.912954 250.733523 
L 309.452708 251.04333 
L 311.992462 251.353137 
L 314.532216 251.662944 
" style="fill:none;stroke:#ee854a;stroke-linecap:round;stroke-width:3.375;"/>
   </g>
   <g id="patch_3">
    <path d="M 63.096562 278.82 
L 63.096562 7.2 
" style="fill:none;stroke:#ffffff;stroke-linecap:square;stroke-linejoin:miter;stroke-width:1.875;"/>
   </g>
   <g id="patch_4">
    <path d="M 63.096562 278.82 
L 314.532216 278.82 
" style="fill:none;stroke:#ffffff;stroke-linecap:square;stroke-linejoin:miter;stroke-width:1.875;"/>
   </g>
  </g>
  <g id="legend_1">
   <g id="text_15">
    <!-- rating_type -->
    <defs>
     <path d="M 40.4375 6.390625 
Q 35.546875 2.25 31.03125 0.53125 
Q 26.515625 -1.171875 21.34375 -1.171875 
Q 12.796875 -1.171875 8.203125 3 
Q 3.609375 7.171875 3.609375 13.671875 
Q 3.609375 17.484375 5.34375 20.625 
Q 7.078125 23.78125 9.890625 25.6875 
Q 12.703125 27.59375 16.21875 28.5625 
Q 18.796875 29.25 24.03125 29.890625 
Q 34.671875 31.15625 39.703125 32.90625 
Q 39.75 34.71875 39.75 35.203125 
Q 39.75 40.578125 37.25 42.78125 
Q 33.890625 45.75 27.25 45.75 
Q 21.046875 45.75 18.09375 43.578125 
Q 15.140625 41.40625 13.71875 35.890625 
L 5.125 37.0625 
Q 6.296875 42.578125 8.984375 45.96875 
Q 11.671875 49.359375 16.75 51.1875 
Q 21.828125 53.03125 28.515625 53.03125 
Q 35.15625 53.03125 39.296875 51.46875 
Q 43.453125 49.90625 45.40625 47.53125 
Q 47.359375 45.171875 48.140625 41.546875 
Q 48.578125 39.3125 48.578125 33.453125 
L 48.578125 21.734375 
Q 48.578125 9.46875 49.140625 6.21875 
Q 49.703125 2.984375 51.375 0 
L 42.1875 0 
Q 40.828125 2.734375 40.4375 6.390625 
z
M 39.703125 26.03125 
Q 34.90625 24.078125 25.34375 22.703125 
Q 19.921875 21.921875 17.671875 20.9375 
Q 15.4375 19.96875 14.203125 18.09375 
Q 12.984375 16.21875 12.984375 13.921875 
Q 12.984375 10.40625 15.640625 8.0625 
Q 18.3125 5.71875 23.4375 5.71875 
Q 28.515625 5.71875 32.46875 7.9375 
Q 36.421875 10.15625 38.28125 14.015625 
Q 39.703125 17 39.703125 22.796875 
z
" id="ArialMT-97"/>
     <path d="M 4.984375 -4.296875 
L 13.53125 -5.5625 
Q 14.0625 -9.515625 16.5 -11.328125 
Q 19.78125 -13.765625 25.4375 -13.765625 
Q 31.546875 -13.765625 34.859375 -11.328125 
Q 38.1875 -8.890625 39.359375 -4.5 
Q 40.046875 -1.8125 39.984375 6.78125 
Q 34.234375 0 25.640625 0 
Q 14.9375 0 9.078125 7.71875 
Q 3.21875 15.4375 3.21875 26.21875 
Q 3.21875 33.640625 5.90625 39.90625 
Q 8.59375 46.1875 13.6875 49.609375 
Q 18.796875 53.03125 25.6875 53.03125 
Q 34.859375 53.03125 40.828125 45.609375 
L 40.828125 51.859375 
L 48.921875 51.859375 
L 48.921875 7.03125 
Q 48.921875 -5.078125 46.453125 -10.125 
Q 44 -15.1875 38.640625 -18.109375 
Q 33.296875 -21.046875 25.484375 -21.046875 
Q 16.21875 -21.046875 10.5 -16.875 
Q 4.78125 -12.703125 4.984375 -4.296875 
z
M 12.25 26.859375 
Q 12.25 16.65625 16.296875 11.96875 
Q 20.359375 7.28125 26.46875 7.28125 
Q 32.515625 7.28125 36.609375 11.9375 
Q 40.71875 16.609375 40.71875 26.5625 
Q 40.71875 36.078125 36.5 40.90625 
Q 32.28125 45.75 26.3125 45.75 
Q 20.453125 45.75 16.34375 40.984375 
Q 12.25 36.234375 12.25 26.859375 
z
" id="ArialMT-103"/>
     <path d="M -1.515625 -19.875 
L -1.515625 -13.53125 
L 56.734375 -13.53125 
L 56.734375 -19.875 
z
" id="ArialMT-95"/>
     <path d="M 6.203125 -19.96875 
L 5.21875 -11.71875 
Q 8.109375 -12.5 10.25 -12.5 
Q 13.1875 -12.5 14.9375 -11.515625 
Q 16.703125 -10.546875 17.828125 -8.796875 
Q 18.65625 -7.46875 20.515625 -2.25 
Q 20.75 -1.515625 21.296875 -0.09375 
L 1.609375 51.859375 
L 11.078125 51.859375 
L 21.875 21.828125 
Q 23.96875 16.109375 25.640625 9.8125 
Q 27.15625 15.875 29.25 21.625 
L 40.328125 51.859375 
L 49.125 51.859375 
L 29.390625 -0.875 
Q 26.21875 -9.421875 24.46875 -12.640625 
Q 22.125 -17 19.09375 -19.015625 
Q 16.0625 -21.046875 11.859375 -21.046875 
Q 9.328125 -21.046875 6.203125 -19.96875 
z
" id="ArialMT-121"/>
     <path d="M 6.59375 -19.875 
L 6.59375 51.859375 
L 14.59375 51.859375 
L 14.59375 45.125 
Q 17.4375 49.078125 21 51.046875 
Q 24.5625 53.03125 29.640625 53.03125 
Q 36.28125 53.03125 41.359375 49.609375 
Q 46.4375 46.1875 49.015625 39.953125 
Q 51.609375 33.734375 51.609375 26.3125 
Q 51.609375 18.359375 48.75 11.984375 
Q 45.90625 5.609375 40.453125 2.21875 
Q 35.015625 -1.171875 29 -1.171875 
Q 24.609375 -1.171875 21.109375 0.6875 
Q 17.625 2.546875 15.375 5.375 
L 15.375 -19.875 
z
M 14.546875 25.640625 
Q 14.546875 15.625 18.59375 10.84375 
Q 22.65625 6.0625 28.421875 6.0625 
Q 34.28125 6.0625 38.453125 11.015625 
Q 42.625 15.96875 42.625 26.375 
Q 42.625 36.28125 38.546875 41.203125 
Q 34.46875 46.140625 28.8125 46.140625 
Q 23.1875 46.140625 18.859375 40.890625 
Q 14.546875 35.640625 14.546875 25.640625 
z
" id="ArialMT-112"/>
    </defs>
    <g style="fill:#262626;" transform="translate(335.843099 147.561539)scale(0.153 -0.153)">
     <use xlink:href="#ArialMT-114"/>
     <use x="33.300781" xlink:href="#ArialMT-97"/>
     <use x="88.916016" xlink:href="#ArialMT-116"/>
     <use x="116.699219" xlink:href="#ArialMT-105"/>
     <use x="138.916016" xlink:href="#ArialMT-110"/>
     <use x="194.53125" xlink:href="#ArialMT-103"/>
     <use x="250.146484" xlink:href="#ArialMT-95"/>
     <use x="305.761719" xlink:href="#ArialMT-116"/>
     <use x="333.544922" xlink:href="#ArialMT-121"/>
     <use x="383.544922" xlink:href="#ArialMT-112"/>
     <use x="439.160156" xlink:href="#ArialMT-101"/>
    </g>
   </g>
   <g id="PathCollection_3">
    <g>
     <use style="fill:#4878d0;stroke:#4878d0;" x="333.605591" xlink:href="#m3aa8db2bca" y="166.510852"/>
    </g>
   </g>
   <g id="text_16">
    <!-- critic -->
    <defs>
     <path d="M 40.4375 19 
L 49.078125 17.875 
Q 47.65625 8.9375 41.8125 3.875 
Q 35.984375 -1.171875 27.484375 -1.171875 
Q 16.84375 -1.171875 10.375 5.78125 
Q 3.90625 12.75 3.90625 25.734375 
Q 3.90625 34.125 6.6875 40.421875 
Q 9.46875 46.734375 15.15625 49.875 
Q 20.84375 53.03125 27.546875 53.03125 
Q 35.984375 53.03125 41.359375 48.75 
Q 46.734375 44.484375 48.25 36.625 
L 39.703125 35.296875 
Q 38.484375 40.53125 35.375 43.15625 
Q 32.28125 45.796875 27.875 45.796875 
Q 21.234375 45.796875 17.078125 41.03125 
Q 12.9375 36.28125 12.9375 25.984375 
Q 12.9375 15.53125 16.9375 10.796875 
Q 20.953125 6.0625 27.390625 6.0625 
Q 32.5625 6.0625 36.03125 9.234375 
Q 39.5 12.40625 40.4375 19 
z
" id="ArialMT-99"/>
    </defs>
    <g style="fill:#262626;" transform="translate(363.305591 170.842102)scale(0.165 -0.165)">
     <use xlink:href="#ArialMT-99"/>
     <use x="50" xlink:href="#ArialMT-114"/>
     <use x="83.300781" xlink:href="#ArialMT-105"/>
     <use x="105.517578" xlink:href="#ArialMT-116"/>
     <use x="133.300781" xlink:href="#ArialMT-105"/>
     <use x="155.517578" xlink:href="#ArialMT-99"/>
    </g>
   </g>
   <g id="PathCollection_4">
    <g>
     <use style="fill:#ee854a;stroke:#ee854a;" x="333.605591" xlink:href="#m85ae6b02b6" y="189.850617"/>
    </g>
   </g>
   <g id="text_17">
    <!-- audience -->
    <defs>
     <path d="M 40.578125 0 
L 40.578125 7.625 
Q 34.515625 -1.171875 24.125 -1.171875 
Q 19.53125 -1.171875 15.546875 0.578125 
Q 11.578125 2.34375 9.640625 5 
Q 7.71875 7.671875 6.9375 11.53125 
Q 6.390625 14.109375 6.390625 19.734375 
L 6.390625 51.859375 
L 15.1875 51.859375 
L 15.1875 23.09375 
Q 15.1875 16.21875 15.71875 13.8125 
Q 16.546875 10.359375 19.234375 8.375 
Q 21.921875 6.390625 25.875 6.390625 
Q 29.828125 6.390625 33.296875 8.421875 
Q 36.765625 10.453125 38.203125 13.9375 
Q 39.65625 17.4375 39.65625 24.078125 
L 39.65625 51.859375 
L 48.4375 51.859375 
L 48.4375 0 
z
" id="ArialMT-117"/>
     <path d="M 40.234375 0 
L 40.234375 6.546875 
Q 35.296875 -1.171875 25.734375 -1.171875 
Q 19.53125 -1.171875 14.328125 2.25 
Q 9.125 5.671875 6.265625 11.796875 
Q 3.421875 17.921875 3.421875 25.875 
Q 3.421875 33.640625 6 39.96875 
Q 8.59375 46.296875 13.765625 49.65625 
Q 18.953125 53.03125 25.34375 53.03125 
Q 30.03125 53.03125 33.6875 51.046875 
Q 37.359375 49.078125 39.65625 45.90625 
L 39.65625 71.578125 
L 48.390625 71.578125 
L 48.390625 0 
z
M 12.453125 25.875 
Q 12.453125 15.921875 16.640625 10.984375 
Q 20.84375 6.0625 26.5625 6.0625 
Q 32.328125 6.0625 36.34375 10.765625 
Q 40.375 15.484375 40.375 25.140625 
Q 40.375 35.796875 36.265625 40.765625 
Q 32.171875 45.75 26.171875 45.75 
Q 20.3125 45.75 16.375 40.96875 
Q 12.453125 36.1875 12.453125 25.875 
z
" id="ArialMT-100"/>
    </defs>
    <g style="fill:#262626;" transform="translate(363.305591 194.181867)scale(0.165 -0.165)">
     <use xlink:href="#ArialMT-97"/>
     <use x="55.615234" xlink:href="#ArialMT-117"/>
     <use x="111.230469" xlink:href="#ArialMT-100"/>
     <use x="166.845703" xlink:href="#ArialMT-105"/>
     <use x="189.0625" xlink:href="#ArialMT-101"/>
     <use x="244.677734" xlink:href="#ArialMT-110"/>
     <use x="300.292969" xlink:href="#ArialMT-99"/>
     <use x="350.292969" xlink:href="#ArialMT-101"/>
    </g>
   </g>
  </g>
 </g>
 <defs>
  <clipPath id="pd80655dfc0">
   <rect height="271.62" width="251.435653" x="63.096562" y="7.2"/>
  </clipPath>
 </defs>
</svg>
